<?xml version="1.0" encoding="utf-8"?>
<!-- Generator: Adobe Illustrator 24.0.0, SVG Export Plug-In . SVG Version: 6.00 Build 0)  -->
<svg version="1.1" xmlns="http://www.w3.org/2000/svg" xmlns:xlink="http://www.w3.org/1999/xlink" x="0px" y="0px"
	 viewBox="0 0 689.11 483.36" style="enable-background:new 0 0 689.11 483.36;" xml:space="preserve">
<style type="text/css">
	.st0{fill:#CCCCCB;stroke:#414042;stroke-width:4;stroke-linecap:round;stroke-linejoin:round;stroke-miterlimit:10;}
	.st1{fill:#F2F2F3;stroke:#414042;stroke-width:4;stroke-linecap:round;stroke-linejoin:round;stroke-miterlimit:10;}
	.st2{fill:#CE6759;}
	.st3{fill:#D8B5AF;}
	.st4{fill:#B5B5B6;}
	.st5{fill:#D8D8D8;}
	.st6{fill:#E6E7E8;}
	.st7{fill:none;stroke:#414042;stroke-width:6;stroke-miterlimit:10;}
	.st8{fill:#FFF200;}
	.st9{opacity:0.5;}
	.st10{opacity:0.5;fill:none;stroke:#FFFFFF;stroke-width:0.5366;stroke-miterlimit:10;}
	.st11{opacity:0.5;fill:none;stroke:#FFFFFF;stroke-width:0.5;stroke-miterlimit:10;}
	.st12{opacity:0.9;fill:#FFFFFF;}
	.st13{opacity:0.75;fill:#FFFFFF;}
	.st14{fill:#FFFFFF;}
	.st15{fill:none;stroke:#414042;stroke-width:4;stroke-linecap:round;stroke-linejoin:round;stroke-miterlimit:10;}
	.st16{opacity:0.9;fill:none;stroke:#FFFFFF;stroke-width:2;stroke-miterlimit:10;}
	.st17{fill:#939598;}
	.st18{fill:#414042;}
	.st19{fill:#CE685A;stroke:#010101;stroke-width:3;stroke-linecap:round;stroke-linejoin:round;stroke-miterlimit:10;}
	.st20{fill:#B5B6B6;stroke:#010101;stroke-width:3;stroke-linecap:round;stroke-linejoin:round;stroke-miterlimit:10;}
	.st21{fill:#010101;}
	.st22{opacity:0.21;fill:none;stroke:#FFFFFF;stroke-width:0.5;stroke-miterlimit:10;}
	.st23{fill:none;stroke:#FFFFFF;stroke-width:0.5;stroke-miterlimit:10;}
	.st24{fill:#BCBEC0;}
	.st25{fill:#CE6759;stroke:#414042;stroke-width:4;stroke-linecap:round;stroke-linejoin:round;stroke-miterlimit:10;}
	.st26{fill:#B5B5B6;stroke:#414042;stroke-width:4;stroke-linecap:round;stroke-linejoin:round;stroke-miterlimit:10;}
	.st27{fill:#D8D8D8;stroke:#414042;stroke-width:4;stroke-linecap:round;stroke-linejoin:round;stroke-miterlimit:10;}
	.st28{fill:none;stroke:#424142;stroke-width:2;stroke-linecap:round;stroke-linejoin:round;stroke-miterlimit:10;}
</style>
<g id="Layer_2">
</g>
<g id="Layer_3">
</g>
<g id="Layer_1">
	<polygon class="st4" points="344.92,138.14 618.91,412.13 686.98,344.07 481.02,138.11 481.18,137.95 345.1,1.87 344.94,2.03 
		344.73,1.83 208.86,138.11 1.87,345.1 69.91,413.14 	"/>
	<polygon class="st6" points="344.92,138.14 69.91,413.14 137.95,481.18 344.94,274.19 550.9,480.15 618.91,412.13 	"/>
	<g>
		<path class="st13" d="M667.84,363.2l0.35-0.35l-22.53-22.53l18.3-18.3l-0.38-0.38l-18.3,18.3l-22.04-22.04l18.46-18.46l-0.38-0.38
			l-18.46,18.46l-22.04-22.04l18.05-18.05l-0.38-0.38l-18.05,18.05l-22.04-22.04l18.27-18.27l-0.38-0.38l-18.27,18.27l-22.04-22.04
			l18.27-18.27l-0.38-0.38l-18.27,18.27l-22.4-22.4l17.88-17.88l-0.38-0.38l-17.88,17.88l-22.04-22.04l17.94-17.94l-0.38-0.38
			l-17.94,17.94l-22.04-22.04l17.69-17.69l-0.38-0.38l-17.69,17.69l-22.04-22.04l17.99-17.99l-0.38-0.38l-17.99,17.99L443.35,138
			l17.72-17.72l-0.38-0.38l-17.72,17.72l-22.04-22.04l18.32-18.32l-0.38-0.38l-18.32,18.32l-22.04-22.04l17.52-17.52l-0.38-0.38
			l-17.53,17.53l-22.04-22.04l17.69-17.69l-0.38-0.38l-17.69,17.69l-22.04-22.04l17.77-17.77l-0.38-0.38l-17.77,17.77l-8.61-8.61
			l0.01-0.01l-18.23-18.23l-0.38,0.38l18.05,18.05l-21.94,21.94l-18.27-18.27l-0.38,0.38l18.27,18.27l-22.04,22.04l-18.44-18.44
			l-0.38,0.38l18.44,18.44l-22.04,22.04l-18.02-18.03l-0.38,0.38l18.02,18.02l-22.04,22.04l-18.25-18.25l-0.38,0.38l18.25,18.25
			l-22.04,22.04l-18.24-18.25l-0.38,0.38l18.24,18.25l-22.4,22.4l-17.86-17.86l-0.38,0.38l17.86,17.86l-22.04,22.04l-17.92-17.91
			l-0.38,0.38l17.91,17.91l-22.04,22.04l-17.67-17.67l-0.38,0.38l17.67,17.67l-22.04,22.04l-17.97-17.97l-0.38,0.38l17.97,17.97
			l-22.22,22.22l-17.69-17.7l-0.38,0.38l17.69,17.69L97.45,286.2l-18.3-18.3l-0.38,0.38l18.3,18.3l-22.04,22.04l-17.5-17.5
			l-0.38,0.38l17.5,17.5l-22.04,22.04l-17.67-17.67l-0.38,0.38l17.67,17.67l-22.04,22.04l-17.75-17.75l-0.38,0.38l17.75,17.75
			l-9.6,9.6l0.35,0.35l20.7-20.7l16.33,16.33l-20.42,20.42l0.35,0.35l8.64-8.64l16.33,16.33l-8.93,8.93l0.35,0.35l21.29-21.29
			l16.71,16.71l0.38-0.38l-16.71-16.71l22.04-22.04l16.71,16.71l0.38-0.38l-16.71-16.71l22.04-22.04l16.71,16.71l0.38-0.38
			l-16.71-16.71l22.04-22.04l16.71,16.71l0.38-0.38l-16.71-16.71l22.04-22.04l16.71,16.71l0.38-0.38l-16.71-16.71l44.64-44.64
			l16.71,16.71l0.38-0.38l-16.71-16.71l22.04-22.04l16.71,16.71l0.38-0.38l-16.71-16.71l22.04-22.04l16.71,16.71l0.38-0.38
			l-16.71-16.71l22.4-22.4l16.71,16.71l0.38-0.38l-16.71-16.71l22.04-22.04l16.71,16.71l0.38-0.38l-16.71-16.71l22.04-22.04
			l16.71,16.71l0.38-0.38l-16.71-16.71l21.74-21.74l31.6,31.6l-16.68,16.68l0.38,0.38l16.68-16.68l22.04,22.04l-16.68,16.68
			l0.38,0.38l16.68-16.68l22.04,22.04l-16.68,16.68l0.38,0.38l16.68-16.68l22.22,22.22l-16.68,16.68l0.38,0.38l16.68-16.68
			l22.04,22.04l-16.68,16.68l0.38,0.38l16.68-16.68l22.04,22.04l-16.68,16.68l0.38,0.38l16.68-16.68l22.04,22.04l-16.68,16.68
			l0.38,0.38l16.68-16.68l22.4,22.4l-16.68,16.68l0.38,0.38l16.68-16.68l22.04,22.04l-16.68,16.68l0.38,0.38l16.68-16.68
			l22.04,22.04l-16.68,16.68l0.38,0.38l16.68-16.68l20.29,20.29l-16.85,16.85l0.38,0.38l16.85-16.85l11.43,11.43l-0.22,0.22
			l0.38,0.38l0.22-0.22l11.92,11.92l-16.9,16.9l0.38,0.38l16.9-16.9l10.9,10.9l0.35-0.35l-23.2-23.2l16.33-16.33l11.39,11.39
			l-0.44,0.44l0.38,0.38l0.44-0.44l11.43,11.43l0.35-0.35l-11.43-11.43l16.33-16.33L667.84,363.2z M595.25,323.27l16.33-16.33
			l22.04,22.04l-16.33,16.33L595.25,323.27z M572.83,300.85l16.33-16.33l22.04,22.04l-16.33,16.33L572.83,300.85z M550.41,278.43
			l16.24-16.24l-0.38-0.38l-16.24,16.24l-22.4-22.4l16.33-16.33l44.82,44.82l-16.33,16.33L550.41,278.43z M505.21,233.22
			l16.33-16.33l22.04,22.04l-16.33,16.33L505.21,233.22z M482.79,210.8l16.33-16.33l22.04,22.04l-16.33,16.33L482.79,210.8z
			 M460.37,188.38l16.33-16.33l22.04,22.04l-16.33,16.33L460.37,188.38z M415.35,143.36l16.33-16.33l22.04,22.04l-16.33,16.33
			L415.35,143.36z M392.93,120.94l16.33-16.33l22.04,22.04l-16.33,16.33L392.93,120.94z M344.85,72.87l16.33-16.33l25.28,25.28
			l-16.33,16.33L344.85,72.87z M344.33,72.68l-15.28,15.28l-16.33-16.33l31.78-31.78l16.33,16.33L344.33,72.68z M328.67,88.34
			l-23.54,23.54L288.8,95.55l23.54-23.54L328.67,88.34z M304.75,112.26l-22.04,22.04l-16.33-16.33l22.04-22.04L304.75,112.26z
			 M282.33,134.68l-22.04,22.04l-16.22-16.22l-0.38,0.38l16.22,16.22l-22.4,22.4l-16.33-16.33L266,118.35L282.33,134.68z
			 M237.13,179.88l-22.04,22.04l-16.33-16.33l22.04-22.04L237.13,179.88z M214.71,202.3l-22.04,22.04l-16.33-16.33l22.04-22.04
			L214.71,202.3z M192.29,224.72l-44.64,44.64l-16.33-16.33l44.64-44.64L192.29,224.72z M147.27,269.74l-22.04,22.04l-16.33-16.33
			l22.04-22.04L147.27,269.74z M124.85,292.16l-22.04,22.04l-16.33-16.33l22.04-22.04L124.85,292.16z M102.43,314.58l-22.04,22.04
			L64.06,320.3l22.04-22.04L102.43,314.58z M91.01,326.71l16.33,16.33L85.3,365.08l-16.33-16.33L91.01,326.71z M91.39,326.33
			l22.04-22.04l16.33,16.33l-22.04,22.04L91.39,326.33z M113.81,303.91l22.04-22.04l16.33,16.33l-22.04,22.04L113.81,303.91z
			 M136.23,281.49l22.22-22.22l16.33,16.33l-22.22,22.22L136.23,281.49z M158.83,258.89l22.04-22.04l16.33,16.33l-22.04,22.04
			L158.83,258.89z M181.25,236.47l22.04-22.04l16.33,16.33l-22.04,22.04L181.25,236.47z M203.67,214.05l22.04-22.04l16.33,16.33
			L220,230.38L203.67,214.05z M226.09,191.63l22.4-22.4l16.33,16.33l-22.4,22.4L226.09,191.63z M248.87,168.85l22.04-22.04
			l16.33,16.33l-22.04,22.04L248.87,168.85z M271.29,146.43l22.04-22.04l16.33,16.33l-22.04,22.04L271.29,146.43z M293.71,124.01
			l22.04-22.04l16.33,16.33l-22.04,22.04L293.71,124.01z M316.13,101.59l28.37-28.37l16.3,16.3l-17.08,17.08l0.03,0.03l-11.28,11.28
			L316.13,101.59z M361.18,89.9l22.55,22.55l-16.33,16.33l-22.55-22.55L361.18,89.9z M370.51,98.52l16.33-16.33l22.04,22.04
			l-16.33,16.33L370.51,98.52z M454.09,149.46l22.22,22.22L459.99,188l-22.22-22.22L454.09,149.46z M41.64,342.72l22.04-22.04
			L80.01,337l-22.04,22.04L41.64,342.72z M46.55,371.17l22.04-22.04l16.33,16.33L62.88,387.5L46.55,371.17z M376.46,137.83
			L376.46,137.83l-8.68-8.68l16.33-16.33l18.74,18.74l-16.33,16.33l-9.68-9.68l0,0L376.46,137.83z M398.88,160.25L398.88,160.25
			l-11.98-11.98l16.33-16.33l22.04,22.04l-16.33,16.33l-9.68-9.68l0,0L398.88,160.25z M443.9,205.27L443.9,205.27l-22.22-22.22l0,0
			l-0.38-0.38l0,0l-11.98-11.98l16.33-16.33L470.28,199l-16.33,16.33l-9.68-9.68l0,0L443.9,205.27z M466.32,227.69L466.32,227.69
			l-11.98-11.98l16.33-16.33l22.04,22.04l-16.33,16.33l-9.68-9.68l0,0L466.32,227.69z M488.74,250.11L488.74,250.11l-11.98-11.98
			l16.33-16.33l22.04,22.04l-16.33,16.33l-9.68-9.68l0,0L488.74,250.11z M511.16,272.53L511.16,272.53l-11.99-11.98l16.33-16.33
			l22.4,22.4l-16.33,16.33l-10.04-10.04l0,0L511.16,272.53z M533.94,295.32L533.94,295.32l-11.98-11.98l16.33-16.33l22.04,22.04
			L544,305.38l-9.68-9.68l0,0L533.94,295.32z M556.36,317.74L556.36,317.74l-11.98-11.98l16.33-16.33l22.04,22.04l-16.33,16.33
			l-9.68-9.68l0,0L556.36,317.74z M578.78,340.16L578.78,340.16l-11.98-11.98l16.33-16.33l22.04,22.04l-16.33,16.33l-9.68-9.68l0,0
			L578.78,340.16z M611.26,372.63l-22.04-22.04l16.33-16.33l22.04,22.04L611.26,372.63z M639.71,367.73l-22.04-22.04L634,329.36
			l22.04,22.04L639.71,367.73z"/>
	</g>
	
		<rect x="228.02" y="91.51" transform="matrix(0.7071 -0.7071 0.7071 0.7071 -16.8569 235.5752)" class="st2" width="95.84" height="93.25"/>
	<line class="st15" x1="71.08" y1="275.9" x2="139.12" y2="343.94"/>
	<line class="st16" x1="138.1" y1="342.92" x2="206.14" y2="410.96"/>
	<line class="st15" x1="346.85" y1="137.24" x2="412.19" y2="71.9"/>
	<line class="st15" x1="277.81" y1="71.9" x2="342.98" y2="137.07"/>
	<line class="st15" x1="208.83" y1="140.7" x2="275.59" y2="207.46"/>
	<line class="st16" x1="276.5" y1="208.38" x2="343.26" y2="275.14"/>
	<line class="st15" x1="139.58" y1="209.95" x2="206.34" y2="276.71"/>
	<line class="st16" x1="206.47" y1="276.84" x2="273.24" y2="343.6"/>
	<line class="st15" x1="414.12" y1="207.02" x2="481.57" y2="139.56"/>
	<line class="st16" x1="345.87" y1="275.26" x2="413.32" y2="207.81"/>
	<line class="st15" x1="482.26" y1="275.48" x2="550.33" y2="207.42"/>
	<line class="st16" x1="415.94" y1="341.81" x2="484" y2="273.74"/>
	<line class="st15" x1="551.03" y1="343.43" x2="618.05" y2="276.41"/>
	<path class="st17" d="M137.95,483.18c-0.51,0-1.02-0.2-1.41-0.59L68.5,414.56c-0.78-0.78-0.78-2.05,0-2.83L343.5,136.72
		c0.75-0.75,2.08-0.75,2.83,0l274,274c0.78,0.78,0.78,2.05,0,2.83l-68.01,68.01c-0.75,0.75-2.08,0.75-2.83,0L344.94,277.02
		L139.36,482.6C138.97,482.99,138.46,483.18,137.95,483.18z M72.74,413.14l65.21,65.21l205.58-205.58c0.75-0.75,2.08-0.75,2.83,0
		L550.9,477.32l65.19-65.19L344.92,140.96L72.74,413.14z"/>
	<g>
		<path class="st14" d="M297.72,138.02c0,7.62-2.17,13.46-6.51,17.52c-4.34,4.05-10.61,6.08-18.8,6.08h-13.12v-46.32h14.54
			c7.56,0,13.43,2,17.62,5.99S297.72,130.86,297.72,138.02z M287.52,138.28c0-9.95-4.39-14.92-13.18-14.92h-5.23v30.16h4.21
			C282.79,153.52,287.52,148.44,287.52,138.28z"/>
	</g>
	<line class="st16" x1="483.81" y1="410.65" x2="550.82" y2="343.63"/>
	<path class="st18" d="M69.91,415.14c-0.51,0-1.02-0.2-1.41-0.59L0.46,346.52c-0.38-0.38-0.59-0.88-0.59-1.41s0.21-1.04,0.59-1.41
		L343.32,0.41c0.51-0.51,1.22-0.68,1.86-0.53c0.48,0.02,0.96,0.21,1.33,0.58l136.08,136.08c0.23,0.23,0.4,0.51,0.49,0.81
		l205.31,205.31c0.78,0.78,0.78,2.05,0,2.83l-68.06,68.06c-0.75,0.75-2.08,0.75-2.83,0L344.92,140.96L71.32,414.56
		C70.93,414.95,70.42,415.14,69.91,415.14z M4.7,345.1l65.21,65.21L343.5,136.72c0.75-0.75,2.08-0.75,2.83,0L618.91,409.3
		l65.24-65.24L479.61,139.53c-0.23-0.23-0.4-0.51-0.49-0.81L344.89,4.5L4.7,345.1z"/>
</g>
</svg>
