<?xml version="1.0" encoding="utf-8"?>
<!-- Generator: Adobe Illustrator 24.0.0, SVG Export Plug-In . SVG Version: 6.00 Build 0)  -->
<svg version="1.1" xmlns="http://www.w3.org/2000/svg" xmlns:xlink="http://www.w3.org/1999/xlink" x="0px" y="0px"
	 viewBox="0 0 689.11 483.36" style="enable-background:new 0 0 689.11 483.36;" xml:space="preserve">
<style type="text/css">
	.st0{fill:#CCCCCB;stroke:#414042;stroke-width:4;stroke-linecap:round;stroke-linejoin:round;stroke-miterlimit:10;}
	.st1{fill:#F2F2F3;stroke:#414042;stroke-width:4;stroke-linecap:round;stroke-linejoin:round;stroke-miterlimit:10;}
	.st2{fill:#CE6759;}
	.st3{fill:#D8B5AF;}
	.st4{fill:#B5B5B6;}
	.st5{fill:#D8D8D8;}
	.st6{fill:#E6E7E8;}
	.st7{fill:none;stroke:#414042;stroke-width:6;stroke-miterlimit:10;}
	.st8{fill:#FFF200;}
	.st9{opacity:0.5;}
	.st10{opacity:0.5;fill:none;stroke:#FFFFFF;stroke-width:0.5366;stroke-miterlimit:10;}
	.st11{opacity:0.5;fill:none;stroke:#FFFFFF;stroke-width:0.5;stroke-miterlimit:10;}
	.st12{opacity:0.9;fill:#FFFFFF;}
	.st13{opacity:0.75;fill:#FFFFFF;}
	.st14{fill:#FFFFFF;}
	.st15{fill:none;stroke:#414042;stroke-width:4;stroke-linecap:round;stroke-linejoin:round;stroke-miterlimit:10;}
	.st16{opacity:0.9;fill:none;stroke:#FFFFFF;stroke-width:2;stroke-miterlimit:10;}
	.st17{fill:#939598;}
	.st18{fill:#414042;}
	.st19{fill:#CE685A;stroke:#010101;stroke-width:3;stroke-linecap:round;stroke-linejoin:round;stroke-miterlimit:10;}
	.st20{fill:#B5B6B6;stroke:#010101;stroke-width:3;stroke-linecap:round;stroke-linejoin:round;stroke-miterlimit:10;}
	.st21{fill:#010101;}
	.st22{opacity:0.21;fill:none;stroke:#FFFFFF;stroke-width:0.5;stroke-miterlimit:10;}
	.st23{fill:none;stroke:#FFFFFF;stroke-width:0.5;stroke-miterlimit:10;}
	.st24{fill:#BCBEC0;}
	.st25{fill:#CE6759;stroke:#414042;stroke-width:4;stroke-linecap:round;stroke-linejoin:round;stroke-miterlimit:10;}
	.st26{fill:#B5B5B6;stroke:#414042;stroke-width:4;stroke-linecap:round;stroke-linejoin:round;stroke-miterlimit:10;}
	.st27{fill:#D8D8D8;stroke:#414042;stroke-width:4;stroke-linecap:round;stroke-linejoin:round;stroke-miterlimit:10;}
	.st28{fill:none;stroke:#424142;stroke-width:2;stroke-linecap:round;stroke-linejoin:round;stroke-miterlimit:10;}
</style>
<g id="Layer_2">
</g>
<g id="Layer_3">
</g>
<g id="Layer_1">
	<polygon class="st4" points="345.86,138.14 619.85,412.13 687.92,344.07 481.96,138.11 482.12,137.95 346.04,1.87 345.88,2.03 
		345.67,1.83 209.8,138.11 2.81,345.1 70.85,413.14 	"/>
	<polygon class="st6" points="345.86,138.14 70.85,413.14 138.89,481.18 345.88,274.19 551.84,480.15 619.85,412.13 	"/>
	<g>
		<path class="st13" d="M668.78,363.2l0.35-0.35l-22.53-22.53l18.3-18.3l-0.38-0.38l-18.3,18.3l-22.04-22.04l18.46-18.46l-0.38-0.38
			l-18.46,18.46l-22.04-22.04l18.05-18.05l-0.38-0.38l-18.05,18.05l-22.04-22.04l18.27-18.27l-0.38-0.38l-18.27,18.27l-22.04-22.04
			l18.27-18.27l-0.38-0.38l-18.27,18.27l-22.4-22.4l17.88-17.88l-0.38-0.38l-17.88,17.88l-22.04-22.04l17.94-17.94l-0.38-0.38
			l-17.94,17.94l-22.04-22.04L507,165.33l-0.38-0.38l-17.69,17.69l-22.04-22.04l17.99-17.99l-0.38-0.38l-17.99,17.99L444.29,138
			L462,120.29l-0.38-0.38l-17.72,17.72l-22.04-22.04l18.32-18.32l-0.38-0.38l-18.32,18.32l-22.04-22.04l17.52-17.52l-0.38-0.38
			l-17.53,17.53l-22.04-22.04l17.69-17.69l-0.38-0.38l-17.69,17.69l-22.04-22.04l17.77-17.77L372,30.17l-17.77,17.77l-8.61-8.61
			l0.01-0.01L327.4,21.09l-0.38,0.38l18.05,18.05l-21.94,21.94l-18.27-18.27l-0.38,0.38l18.27,18.27l-22.04,22.04l-18.44-18.44
			l-0.38,0.38l18.44,18.44l-22.04,22.04l-18.02-18.03l-0.38,0.38l18.02,18.02l-22.04,22.04l-18.25-18.25l-0.38,0.38l18.25,18.25
			l-22.04,22.04l-18.24-18.25l-0.38,0.38l18.24,18.25l-22.4,22.4l-17.86-17.86l-0.38,0.38l17.86,17.86l-22.04,22.04l-17.92-17.91
			l-0.38,0.38l17.91,17.91l-22.04,22.04l-17.67-17.67l-0.38,0.38l17.67,17.67l-22.04,22.04l-17.97-17.97l-0.38,0.38l17.97,17.97
			l-22.22,22.22l-17.69-17.7l-0.38,0.38l17.69,17.69L98.39,286.2l-18.3-18.3l-0.38,0.38l18.3,18.3l-22.04,22.04l-17.5-17.5
			l-0.38,0.38l17.5,17.5l-22.04,22.04l-17.67-17.67l-0.38,0.38l17.67,17.67l-22.04,22.04l-17.75-17.75L13,336.09l17.75,17.75
			l-9.6,9.6l0.35,0.35l20.7-20.7l16.33,16.33l-20.42,20.42l0.35,0.35l8.64-8.64l16.33,16.33l-8.93,8.93l0.35,0.35l21.29-21.29
			l16.71,16.71l0.38-0.38l-16.71-16.71l22.04-22.04l16.71,16.71l0.38-0.38l-16.71-16.71l22.04-22.04l16.71,16.71l0.38-0.38
			l-16.71-16.71l22.04-22.04l16.71,16.71l0.38-0.38l-16.71-16.71l22.04-22.04l16.71,16.71l0.38-0.38l-16.71-16.71l44.64-44.64
			l16.71,16.71l0.38-0.38l-16.71-16.71l22.04-22.04l16.71,16.71l0.38-0.38l-16.71-16.71l22.04-22.04l16.71,16.71l0.38-0.38
			l-16.71-16.71l22.4-22.4l16.71,16.71l0.38-0.38l-16.71-16.71l22.04-22.04l16.71,16.71l0.38-0.38l-16.71-16.71l22.04-22.04
			l16.71,16.71l0.38-0.38l-16.71-16.71l21.74-21.74l31.6,31.6l-16.68,16.68l0.38,0.38l16.68-16.68l22.04,22.04l-16.68,16.68
			l0.38,0.38l16.68-16.68l22.04,22.04l-16.68,16.68l0.38,0.38l16.68-16.68l22.22,22.22l-16.68,16.68l0.38,0.38l16.68-16.68
			l22.04,22.04l-16.68,16.68l0.38,0.38l16.68-16.68l22.04,22.04l-16.68,16.68l0.38,0.38l16.68-16.68l22.04,22.04l-16.68,16.68
			l0.38,0.38l16.68-16.68l22.4,22.4l-16.68,16.68l0.38,0.38l16.68-16.68l22.04,22.04l-16.68,16.68l0.38,0.38l16.68-16.68
			l22.04,22.04l-16.68,16.68l0.38,0.38l16.68-16.68l20.29,20.29l-16.85,16.85l0.38,0.38l16.85-16.85l11.43,11.43l-0.22,0.22
			l0.38,0.38l0.22-0.22l11.92,11.92l-16.9,16.9l0.38,0.38l16.9-16.9l10.9,10.9l0.35-0.35l-23.2-23.2l16.33-16.33l11.39,11.39
			l-0.44,0.44l0.38,0.38l0.44-0.44l11.43,11.43l0.35-0.35l-11.43-11.43l16.33-16.33L668.78,363.2z M596.19,323.27l16.33-16.33
			l22.04,22.04l-16.33,16.33L596.19,323.27z M573.77,300.85l16.33-16.33l22.04,22.04l-16.33,16.33L573.77,300.85z M551.35,278.43
			l16.24-16.24l-0.38-0.38l-16.24,16.24l-22.4-22.4l16.33-16.33l44.82,44.82l-16.33,16.33L551.35,278.43z M506.15,233.22
			l16.33-16.33l22.04,22.04l-16.33,16.33L506.15,233.22z M483.73,210.8l16.33-16.33l22.04,22.04l-16.33,16.33L483.73,210.8z
			 M461.31,188.38l16.33-16.33l22.04,22.04l-16.33,16.33L461.31,188.38z M416.29,143.36l16.33-16.33l22.04,22.04l-16.33,16.33
			L416.29,143.36z M393.87,120.94l16.33-16.33l22.04,22.04l-16.33,16.33L393.87,120.94z M345.79,72.87l16.33-16.33l25.28,25.28
			l-16.33,16.33L345.79,72.87z M345.27,72.68l-15.28,15.28l-16.33-16.33l31.78-31.78l16.33,16.33L345.27,72.68z M329.61,88.34
			l-23.54,23.54l-16.33-16.33l23.54-23.54L329.61,88.34z M305.69,112.26l-22.04,22.04l-16.33-16.33l22.04-22.04L305.69,112.26z
			 M283.27,134.68l-22.04,22.04l-16.22-16.22l-0.38,0.38l16.22,16.22l-22.4,22.4l-16.33-16.33l44.82-44.82L283.27,134.68z
			 M238.07,179.88l-22.04,22.04L199.7,185.6l22.04-22.04L238.07,179.88z M215.65,202.3l-22.04,22.04l-16.33-16.33l22.04-22.04
			L215.65,202.3z M193.23,224.72l-44.64,44.64l-16.33-16.33l44.64-44.64L193.23,224.72z M148.21,269.74l-22.04,22.04l-16.33-16.33
			l22.04-22.04L148.21,269.74z M125.79,292.16l-22.04,22.04l-16.33-16.33l22.04-22.04L125.79,292.16z M103.37,314.58l-22.04,22.04
			L65,320.3l22.04-22.04L103.37,314.58z M91.95,326.71l16.33,16.33l-22.04,22.04l-16.33-16.33L91.95,326.71z M92.33,326.33
			l22.04-22.04l16.33,16.33l-22.04,22.04L92.33,326.33z M114.75,303.91l22.04-22.04l16.33,16.33l-22.04,22.04L114.75,303.91z
			 M137.17,281.49l22.22-22.22l16.33,16.33l-22.22,22.22L137.17,281.49z M159.77,258.89l22.04-22.04l16.33,16.33l-22.04,22.04
			L159.77,258.89z M182.19,236.47l22.04-22.04l16.33,16.33l-22.04,22.04L182.19,236.47z M204.61,214.05l22.04-22.04l16.33,16.33
			l-22.04,22.04L204.61,214.05z M227.03,191.63l22.4-22.4l16.33,16.33l-22.4,22.4L227.03,191.63z M249.81,168.85l22.04-22.04
			l16.33,16.33l-22.04,22.04L249.81,168.85z M272.23,146.43l22.04-22.04l16.33,16.33l-22.04,22.04L272.23,146.43z M294.65,124.01
			l22.04-22.04l16.33,16.33l-22.04,22.04L294.65,124.01z M317.07,101.59l28.37-28.37l16.3,16.3l-17.08,17.08l0.03,0.03l-11.28,11.28
			L317.07,101.59z M362.11,89.9l22.55,22.55l-16.33,16.33l-22.55-22.55L362.11,89.9z M371.45,98.52l16.33-16.33l22.04,22.04
			l-16.33,16.33L371.45,98.52z M455.03,149.46l22.22,22.22L460.93,188l-22.22-22.22L455.03,149.46z M42.58,342.72l22.04-22.04
			L80.95,337l-22.04,22.04L42.58,342.72z M47.49,371.17l22.04-22.04l16.33,16.33L63.82,387.5L47.49,371.17z M377.4,137.83
			L377.4,137.83l-8.68-8.68l16.33-16.33l18.74,18.74l-16.33,16.33l-9.68-9.68l0,0L377.4,137.83z M399.82,160.25L399.82,160.25
			l-11.98-11.98l16.33-16.33l22.04,22.04l-16.33,16.33l-9.68-9.68l0,0L399.82,160.25z M444.84,205.27L444.84,205.27l-22.22-22.22
			l0,0l-0.38-0.38l0,0l-11.98-11.98l16.33-16.33L471.22,199l-16.33,16.33l-9.68-9.68l0,0L444.84,205.27z M467.26,227.69
			L467.26,227.69l-11.98-11.98l16.33-16.33l22.04,22.04l-16.33,16.33l-9.68-9.68l0,0L467.26,227.69z M489.68,250.11L489.68,250.11
			l-11.98-11.98l16.33-16.33l22.04,22.04l-16.33,16.33l-9.68-9.68l0,0L489.68,250.11z M512.1,272.53L512.1,272.53l-11.99-11.98
			l16.33-16.33l22.4,22.4l-16.33,16.33l-10.04-10.04l0,0L512.1,272.53z M534.88,295.32L534.88,295.32l-11.98-11.98l16.33-16.33
			l22.04,22.04l-16.33,16.33l-9.68-9.68l0,0L534.88,295.32z M557.3,317.74L557.3,317.74l-11.98-11.98l16.33-16.33l22.04,22.04
			l-16.33,16.33l-9.68-9.68l0,0L557.3,317.74z M579.72,340.16L579.72,340.16l-11.98-11.98l16.33-16.33l22.04,22.04l-16.33,16.33
			l-9.68-9.68l0,0L579.72,340.16z M612.19,372.63l-22.04-22.04l16.33-16.33l22.04,22.04L612.19,372.63z M640.65,367.73l-22.04-22.04
			l16.33-16.33l22.04,22.04L640.65,367.73z"/>
	</g>
	
		<rect x="92.03" y="230.08" transform="matrix(0.7071 -0.7071 0.7071 0.7071 -154.6733 180.0075)" class="st2" width="95.84" height="93.25"/>
	<line class="st15" x1="72.01" y1="275.9" x2="140.05" y2="343.94"/>
	<line class="st16" x1="139.04" y1="342.92" x2="207.08" y2="410.96"/>
	<line class="st15" x1="347.79" y1="137.24" x2="413.13" y2="71.9"/>
	<line class="st15" x1="278.75" y1="71.9" x2="343.91" y2="137.07"/>
	<line class="st15" x1="209.76" y1="140.7" x2="276.53" y2="207.46"/>
	<line class="st16" x1="277.44" y1="208.38" x2="344.2" y2="275.14"/>
	<line class="st15" x1="140.52" y1="209.95" x2="207.28" y2="276.71"/>
	<line class="st16" x1="207.41" y1="276.84" x2="274.17" y2="343.6"/>
	<line class="st15" x1="415.05" y1="207.02" x2="482.51" y2="139.56"/>
	<line class="st16" x1="346.8" y1="275.26" x2="414.26" y2="207.81"/>
	<line class="st15" x1="483.2" y1="275.48" x2="551.27" y2="207.42"/>
	<line class="st16" x1="416.88" y1="341.81" x2="484.94" y2="273.74"/>
	<line class="st15" x1="551.96" y1="343.43" x2="618.98" y2="276.41"/>
	<path class="st17" d="M138.89,483.18c-0.51,0-1.02-0.2-1.41-0.59l-68.04-68.04c-0.78-0.78-0.78-2.05,0-2.83l275.01-275.01
		c0.75-0.75,2.08-0.75,2.83,0l274,274c0.78,0.78,0.78,2.05,0,2.83l-68.01,68.01c-0.75,0.75-2.08,0.75-2.83,0L345.88,277.02
		L140.3,482.6C139.91,482.99,139.4,483.18,138.89,483.18z M73.68,413.14l65.21,65.21l205.58-205.58c0.75-0.75,2.08-0.75,2.83,0
		l204.54,204.54l65.19-65.19L345.86,140.96L73.68,413.14z"/>
	<g>
		<path class="st14" d="M125.52,253.88h14.42c6.57,0,11.34,0.93,14.31,2.8c2.97,1.87,4.45,4.84,4.45,8.92
			c0,2.77-0.65,5.04-1.95,6.81s-3.03,2.84-5.18,3.2v0.32c2.94,0.65,5.05,1.88,6.35,3.67c1.3,1.8,1.95,4.18,1.95,7.16
			c0,4.22-1.53,7.52-4.58,9.88c-3.05,2.37-7.2,3.55-12.44,3.55h-17.33V253.88z M135.34,272.23h5.7c2.66,0,4.59-0.41,5.78-1.24
			s1.79-2.19,1.79-4.09c0-1.77-0.65-3.05-1.95-3.82c-1.3-0.77-3.35-1.16-6.16-1.16h-5.16V272.23z M135.34,280.02v12.07h6.4
			c2.7,0,4.7-0.52,5.99-1.55c1.29-1.03,1.93-2.62,1.93-4.75c0-3.84-2.75-5.77-8.24-5.77H135.34z"/>
	</g>
	<line class="st16" x1="484.74" y1="410.65" x2="551.76" y2="343.63"/>
	<path class="st18" d="M70.85,415.14c-0.51,0-1.02-0.2-1.41-0.59L1.39,346.52c-0.38-0.38-0.59-0.88-0.59-1.41s0.21-1.04,0.59-1.41
		L344.26,0.41c0.51-0.51,1.22-0.68,1.86-0.53c0.48,0.02,0.96,0.21,1.33,0.58l136.08,136.08c0.23,0.23,0.4,0.51,0.49,0.81
		l205.31,205.31c0.78,0.78,0.78,2.05,0,2.83l-68.06,68.06c-0.75,0.75-2.08,0.75-2.83,0L345.86,140.96L72.26,414.56
		C71.87,414.95,71.36,415.14,70.85,415.14z M5.64,345.1l65.21,65.21l273.59-273.59c0.75-0.75,2.08-0.75,2.83,0L619.85,409.3
		l65.24-65.24L480.54,139.53c-0.23-0.23-0.4-0.51-0.49-0.81L345.83,4.5L5.64,345.1z"/>
</g>
</svg>
