<?xml version="1.0" encoding="utf-8"?>
<!-- Generator: Adobe Illustrator 24.0.0, SVG Export Plug-In . SVG Version: 6.00 Build 0)  -->
<svg version="1.1" xmlns="http://www.w3.org/2000/svg" xmlns:xlink="http://www.w3.org/1999/xlink" x="0px" y="0px"
	 viewBox="0 0 799.92 799.92" style="enable-background:new 0 0 799.92 799.92;" xml:space="preserve">
<style type="text/css">
	.st0{fill:#CCCCCB;stroke:#414042;stroke-width:4;stroke-linecap:round;stroke-linejoin:round;stroke-miterlimit:10;}
	.st1{fill:#F2F2F3;stroke:#414042;stroke-width:4;stroke-linecap:round;stroke-linejoin:round;stroke-miterlimit:10;}
	.st2{fill:#CE6759;}
	.st3{fill:#D8B5AF;}
	.st4{fill:#B5B5B6;}
	.st5{fill:#D8D8D8;}
	.st6{fill:#E6E7E8;}
	.st7{fill:none;stroke:#414042;stroke-width:6;stroke-miterlimit:10;}
	.st8{fill:#FFF200;}
	.st9{opacity:0.5;}
	.st10{opacity:0.5;fill:none;stroke:#FFFFFF;stroke-width:0.5366;stroke-miterlimit:10;}
	.st11{opacity:0.5;fill:none;stroke:#FFFFFF;stroke-width:0.5;stroke-miterlimit:10;}
	.st12{opacity:0.9;fill:#FFFFFF;}
	.st13{opacity:0.75;fill:#FFFFFF;}
	.st14{fill:#FFFFFF;}
	.st15{fill:none;stroke:#414042;stroke-width:4;stroke-linecap:round;stroke-linejoin:round;stroke-miterlimit:10;}
	.st16{opacity:0.9;fill:none;stroke:#FFFFFF;stroke-width:2;stroke-miterlimit:10;}
	.st17{fill:#939598;}
	.st18{fill:#414042;}
	.st19{fill:#CE685A;stroke:#010101;stroke-width:3;stroke-linecap:round;stroke-linejoin:round;stroke-miterlimit:10;}
	.st20{fill:#B5B6B6;stroke:#010101;stroke-width:3;stroke-linecap:round;stroke-linejoin:round;stroke-miterlimit:10;}
	.st21{fill:#010101;}
	.st22{opacity:0.21;fill:none;stroke:#FFFFFF;stroke-width:0.5;stroke-miterlimit:10;}
	.st23{fill:none;stroke:#FFFFFF;stroke-width:0.5;stroke-miterlimit:10;}
	.st24{fill:#BCBEC0;}
	.st25{fill:#CE6759;stroke:#414042;stroke-width:4;stroke-linecap:round;stroke-linejoin:round;stroke-miterlimit:10;}
	.st26{fill:#B5B5B6;stroke:#414042;stroke-width:4;stroke-linecap:round;stroke-linejoin:round;stroke-miterlimit:10;}
	.st27{fill:#D8D8D8;stroke:#414042;stroke-width:4;stroke-linecap:round;stroke-linejoin:round;stroke-miterlimit:10;}
	.st28{fill:none;stroke:#424142;stroke-width:2;stroke-linecap:round;stroke-linejoin:round;stroke-miterlimit:10;}
	.st29{fill:none;}
	.st30{font-family:'OpenSans-Bold';}
	.st31{font-size:19px;}
	.st32{fill:#424142;}
</style>
<g id="Layer_2">
</g>
<g id="Layer_3">
</g>
<g id="Layer_1">
	<rect x="0.26" y="0.25" class="st14" width="800.26" height="800.26"/>
	<g>
		<polygon class="st4" points="399.73,297.48 673.72,571.47 741.79,503.41 535.83,297.45 535.99,297.29 399.91,161.22 
			399.75,161.37 399.54,161.17 263.67,297.45 56.68,504.45 124.72,572.49 		"/>
		<polygon class="st6" points="399.73,297.48 124.72,572.49 192.76,640.52 399.75,433.53 605.71,639.49 673.72,571.47 		"/>
		<g>
			<path class="st13" d="M722.65,522.55l0.35-0.35l-22.53-22.53l18.3-18.3l-0.38-0.38l-18.3,18.3l-22.04-22.04l18.46-18.46
				l-0.38-0.38l-18.46,18.46l-22.04-22.04l18.05-18.05l-0.38-0.38l-18.05,18.05l-22.04-22.04l18.27-18.27l-0.38-0.38l-18.27,18.27
				l-22.04-22.04l18.27-18.27l-0.38-0.38l-18.27,18.27l-22.4-22.4l17.88-17.88l-0.38-0.38l-17.88,17.88l-22.04-22.04l17.94-17.94
				l-0.38-0.38l-17.94,17.94l-22.04-22.04l17.69-17.69l-0.38-0.38l-17.69,17.69l-22.04-22.04l17.99-17.99l-0.38-0.38l-17.99,17.99
				l-22.22-22.22l17.72-17.72l-0.38-0.38l-17.72,17.72l-22.04-22.04l18.32-18.32l-0.38-0.38l-18.32,18.32l-22.04-22.04l17.52-17.52
				l-0.38-0.38l-17.53,17.53l-22.04-22.04l17.69-17.69l-0.38-0.38l-17.69,17.69l-22.04-22.04l17.77-17.77l-0.38-0.38l-17.77,17.77
				l-8.61-8.61l0.01-0.01l-18.23-18.23l-0.38,0.38l18.05,18.05L377,220.8l-18.27-18.27l-0.38,0.38l18.27,18.27l-22.04,22.04
				l-18.44-18.44l-0.38,0.38l18.44,18.44l-22.04,22.04l-18.02-18.03l-0.38,0.38l18.02,18.02l-22.04,22.04l-18.25-18.25l-0.38,0.38
				l18.25,18.25l-22.04,22.04l-18.24-18.25l-0.38,0.38l18.24,18.25l-22.4,22.4l-17.86-17.86l-0.38,0.38l17.86,17.86l-22.04,22.04
				l-17.92-17.91l-0.38,0.38l17.91,17.91L219.7,378.1l-17.67-17.67l-0.38,0.38l17.67,17.67l-22.04,22.04l-17.97-17.97l-0.38,0.38
				l17.97,17.97l-22.22,22.22l-17.69-17.7l-0.38,0.38l17.69,17.69l-22.04,22.04l-18.3-18.3l-0.38,0.38l18.3,18.3l-22.04,22.04
				l-17.5-17.5l-0.38,0.38l17.5,17.5l-22.04,22.04l-17.67-17.67l-0.38,0.38l17.67,17.67L85,512.8l-17.75-17.75l-0.38,0.38
				l17.75,17.75l-9.6,9.6l0.35,0.35l20.7-20.7l16.33,16.33l-20.42,20.42l0.35,0.35l8.64-8.64l16.33,16.33l-8.93,8.93l0.35,0.35
				l21.29-21.29l16.71,16.71l0.38-0.38l-16.71-16.71l22.04-22.04l16.71,16.71l0.38-0.38l-16.71-16.71l22.04-22.04l16.71,16.71
				l0.38-0.38l-16.71-16.71l22.04-22.04l16.71,16.71l0.38-0.38l-16.71-16.71l22.04-22.04l16.71,16.71l0.38-0.38l-16.71-16.71
				l44.64-44.64l16.71,16.71l0.38-0.38l-16.71-16.71l22.04-22.04l16.71,16.71l0.38-0.38l-16.71-16.71l22.04-22.04l16.71,16.71
				l0.38-0.38l-16.71-16.71l22.4-22.4l16.71,16.71l0.38-0.38l-16.71-16.71l22.04-22.04l16.71,16.71l0.38-0.38l-16.71-16.71
				l22.04-22.04l16.71,16.71l0.38-0.38l-16.71-16.71l21.74-21.74l31.6,31.6l-16.68,16.68l0.38,0.38l16.68-16.68l22.04,22.04
				l-16.68,16.68l0.38,0.38l16.68-16.68l22.04,22.04l-16.68,16.68l0.38,0.38l16.68-16.68l22.22,22.22l-16.68,16.68l0.38,0.38
				l16.68-16.68l22.04,22.04l-16.68,16.68l0.38,0.38l16.68-16.68l22.04,22.04l-16.68,16.68l0.38,0.38l16.68-16.68l22.04,22.04
				l-16.68,16.68l0.38,0.38l16.68-16.68l22.4,22.4l-16.68,16.68l0.38,0.38l16.68-16.68l22.04,22.04l-16.68,16.68l0.38,0.38
				l16.68-16.68l22.04,22.04l-16.68,16.68l0.38,0.38l16.68-16.68l20.29,20.29l-16.85,16.85l0.38,0.38l16.85-16.85l11.43,11.43
				l-0.22,0.22l0.38,0.38l0.22-0.22l11.92,11.92l-16.9,16.9l0.38,0.38l16.9-16.9l10.9,10.9l0.35-0.35l-23.2-23.2l16.33-16.33
				l11.39,11.39l-0.44,0.44l0.38,0.38l0.44-0.44l11.43,11.43l0.35-0.35l-11.43-11.43l16.33-16.33L722.65,522.55z M650.06,482.61
				l16.33-16.33l22.04,22.04l-16.33,16.33L650.06,482.61z M627.64,460.19l16.33-16.33l22.04,22.04l-16.33,16.33L627.64,460.19z
				 M605.22,437.77l16.24-16.24l-0.38-0.38l-16.24,16.24l-22.4-22.4l16.33-16.33l44.82,44.82l-16.33,16.33L605.22,437.77z
				 M560.02,392.57l16.33-16.33l22.04,22.04l-16.33,16.33L560.02,392.57z M537.6,370.15l16.33-16.33l22.04,22.04l-16.33,16.33
				L537.6,370.15z M515.18,347.73l16.33-16.33l22.04,22.04l-16.33,16.33L515.18,347.73z M470.16,302.71l16.33-16.33l22.04,22.04
				l-16.33,16.33L470.16,302.71z M447.74,280.29l16.33-16.33L486.1,286l-16.33,16.33L447.74,280.29z M399.66,232.21l16.33-16.33
				l25.28,25.28l-16.33,16.33L399.66,232.21z M399.14,232.02l-15.28,15.28l-16.33-16.33l31.78-31.78l16.33,16.33L399.14,232.02z
				 M383.48,247.68l-23.54,23.54l-16.33-16.33l23.54-23.54L383.48,247.68z M359.56,271.6l-22.04,22.04l-16.33-16.33l22.04-22.04
				L359.56,271.6z M337.14,294.02l-22.04,22.04l-16.22-16.22l-0.38,0.38l16.22,16.22l-22.4,22.4l-16.33-16.33l44.82-44.82
				L337.14,294.02z M291.94,339.23l-22.04,22.04l-16.33-16.33l22.04-22.04L291.94,339.23z M269.52,361.65l-22.04,22.04l-16.33-16.33
				l22.04-22.04L269.52,361.65z M247.1,384.07l-44.64,44.64l-16.33-16.33l44.64-44.64L247.1,384.07z M202.08,429.09l-22.04,22.04
				l-16.33-16.33l22.04-22.04L202.08,429.09z M179.66,451.51l-22.04,22.04l-16.33-16.33l22.04-22.04L179.66,451.51z M157.24,473.93
				l-22.04,22.04l-16.33-16.33l22.04-22.04L157.24,473.93z M145.82,486.05l16.33,16.33l-22.04,22.04l-16.33-16.33L145.82,486.05z
				 M146.2,485.67l22.04-22.04l16.33,16.33L162.53,502L146.2,485.67z M168.62,463.25l22.04-22.04l16.33,16.33l-22.04,22.04
				L168.62,463.25z M191.04,440.83l22.22-22.22l16.33,16.33l-22.22,22.22L191.04,440.83z M213.64,418.23l22.04-22.04l16.33,16.33
				l-22.04,22.04L213.64,418.23z M236.06,395.81l22.04-22.04l16.33,16.33l-22.04,22.04L236.06,395.81z M258.48,373.39l22.04-22.04
				l16.33,16.33l-22.04,22.04L258.48,373.39z M280.9,350.97l22.4-22.4l16.33,16.33l-22.4,22.4L280.9,350.97z M303.68,328.19
				l22.04-22.04l16.33,16.33l-22.04,22.04L303.68,328.19z M326.1,305.77l22.04-22.04l16.33,16.33l-22.04,22.04L326.1,305.77z
				 M348.52,283.35l22.04-22.04l16.33,16.33l-22.04,22.04L348.52,283.35z M370.94,260.93l28.37-28.37l16.3,16.3l-17.08,17.08
				l0.03,0.03l-11.28,11.28L370.94,260.93z M415.99,249.24l22.55,22.55l-16.33,16.33l-22.55-22.55L415.99,249.24z M425.32,257.87
				l16.33-16.33l22.04,22.04l-16.33,16.33L425.32,257.87z M508.9,308.8l22.22,22.22l-16.33,16.33l-22.22-22.22L508.9,308.8z
				 M96.45,502.06l22.04-22.04l16.33,16.33l-22.04,22.04L96.45,502.06z M101.36,530.51l22.04-22.04l16.33,16.33l-22.04,22.04
				L101.36,530.51z M431.27,297.17L431.27,297.17l-8.68-8.68l16.33-16.33l18.74,18.74l-16.33,16.33l-9.68-9.68l0,0L431.27,297.17z
				 M453.69,319.59L453.69,319.59l-11.98-11.98l16.33-16.33l22.04,22.04l-16.33,16.33l-9.68-9.68l0,0L453.69,319.59z M498.71,364.62
				L498.71,364.62l-22.22-22.22l0,0l-0.38-0.38l0,0l-11.98-11.98l16.33-16.33l44.64,44.64l-16.33,16.33l-9.68-9.68l0,0
				L498.71,364.62z M521.13,387.03L521.13,387.03l-11.98-11.98l16.33-16.33l22.04,22.04l-16.33,16.33l-9.68-9.68l0,0L521.13,387.03z
				 M543.55,409.45L543.55,409.45l-11.98-11.98l16.33-16.33l22.04,22.04l-16.33,16.33l-9.68-9.68l0,0L543.55,409.45z M565.97,431.87
				L565.97,431.87l-11.99-11.98l16.33-16.33l22.4,22.4l-16.33,16.33l-10.04-10.04l0,0L565.97,431.87z M588.75,454.66L588.75,454.66
				l-11.98-11.98l16.33-16.33l22.04,22.04l-16.33,16.33l-9.68-9.68l0,0L588.75,454.66z M611.17,477.08L611.17,477.08l-11.98-11.98
				l16.33-16.33l22.04,22.04l-16.33,16.33l-9.68-9.68l0,0L611.17,477.08z M633.59,499.5L633.59,499.5l-11.98-11.98l16.33-16.33
				l22.04,22.04l-16.33,16.33l-9.68-9.68l0,0L633.59,499.5z M666.06,531.98l-22.04-22.04l16.33-16.33l22.04,22.04L666.06,531.98z
				 M694.52,527.07l-22.04-22.04l16.33-16.33l22.04,22.04L694.52,527.07z"/>
		</g>
		
			<rect x="145.9" y="389.43" transform="matrix(0.7071 -0.7071 0.7071 0.7071 -251.5664 264.7703)" class="st2" width="95.84" height="93.25"/>
		<line class="st15" x1="125.89" y1="435.24" x2="193.92" y2="503.28"/>
		<line class="st16" x1="192.91" y1="502.26" x2="260.95" y2="570.3"/>
		<line class="st15" x1="401.66" y1="296.58" x2="467" y2="231.24"/>
		<line class="st15" x1="332.62" y1="231.24" x2="397.79" y2="296.41"/>
		<line class="st15" x1="263.64" y1="300.04" x2="330.4" y2="366.81"/>
		<line class="st16" x1="331.31" y1="367.72" x2="398.07" y2="434.48"/>
		<line class="st15" x1="194.39" y1="369.29" x2="261.15" y2="436.05"/>
		<line class="st16" x1="261.28" y1="436.18" x2="328.04" y2="502.95"/>
		<line class="st15" x1="468.93" y1="366.36" x2="536.38" y2="298.9"/>
		<line class="st16" x1="400.68" y1="434.61" x2="468.13" y2="367.15"/>
		<line class="st15" x1="537.07" y1="434.82" x2="605.14" y2="366.76"/>
		<line class="st16" x1="470.75" y1="501.15" x2="538.81" y2="433.08"/>
		<line class="st15" x1="605.84" y1="502.77" x2="672.85" y2="435.75"/>
		<path class="st17" d="M192.76,642.52c-0.51,0-1.02-0.2-1.41-0.59L123.3,573.9c-0.78-0.78-0.78-2.05,0-2.83l275.01-275.01
			c0.75-0.75,2.08-0.75,2.83,0l274,274c0.78,0.78,0.78,2.05,0,2.83l-68.01,68.01c-0.75,0.75-2.08,0.75-2.83,0L399.75,436.36
			L194.17,641.94C193.78,642.33,193.27,642.52,192.76,642.52z M127.55,572.49l65.21,65.21l205.58-205.58c0.75-0.75,2.08-0.75,2.83,0
			l204.54,204.54l65.19-65.19L399.73,300.31L127.55,572.49z"/>
		<g>
			<path class="st14" d="M179.39,413.22h14.42c6.57,0,11.34,0.93,14.31,2.8c2.97,1.87,4.45,4.84,4.45,8.92
				c0,2.77-0.65,5.04-1.95,6.81s-3.03,2.84-5.18,3.2v0.32c2.94,0.65,5.05,1.88,6.35,3.67c1.3,1.8,1.95,4.18,1.95,7.16
				c0,4.22-1.53,7.52-4.58,9.88c-3.05,2.37-7.2,3.55-12.44,3.55h-17.33V413.22z M189.22,431.57h5.7c2.66,0,4.59-0.41,5.78-1.24
				s1.79-2.19,1.79-4.09c0-1.77-0.65-3.05-1.95-3.82c-1.3-0.77-3.35-1.16-6.16-1.16h-5.16V431.57z M189.22,439.36v12.07h6.4
				c2.7,0,4.7-0.52,5.99-1.55c1.29-1.03,1.93-2.62,1.93-4.75c0-3.84-2.75-5.77-8.24-5.77H189.22z"/>
		</g>
		<line class="st16" x1="538.61" y1="569.99" x2="605.63" y2="502.97"/>
		<path class="st18" d="M124.72,574.49c-0.51,0-1.02-0.2-1.41-0.59l-68.04-68.04c-0.38-0.38-0.59-0.88-0.59-1.41
			s0.21-1.04,0.59-1.41l342.86-343.28c0.51-0.51,1.22-0.68,1.86-0.53c0.48,0.02,0.96,0.21,1.33,0.58L537.4,295.88
			c0.23,0.23,0.4,0.51,0.49,0.81L743.2,502c0.78,0.78,0.78,2.05,0,2.83l-68.06,68.06c-0.75,0.75-2.08,0.75-2.83,0L399.73,300.31
			L126.13,573.9C125.74,574.29,125.23,574.49,124.72,574.49z M59.51,504.45l65.21,65.21l273.59-273.59c0.75-0.75,2.08-0.75,2.83,0
			l272.58,272.58l65.24-65.24L534.42,298.87c-0.23-0.23-0.4-0.51-0.49-0.81L399.7,163.84L59.51,504.45z"/>
	</g>
	<g>
		<g>
			<rect x="207.4" y="698.69" class="st29" width="383.44" height="32.65"/>
			<text transform="matrix(1 0 0 1 326.0098 713.1303)" class="st18 st30 st31">EICKHOFF HALL</text>
			<polyline class="st28" points="405.06,739.9 399.01,745.95 399.01,726.37 			"/>
			<line class="st28" x1="399.01" y1="745.95" x2="393.18" y2="740.12"/>
		</g>
		<g>
			<rect x="1" y="86.6" class="st29" width="799.92" height="16.33"/>
			<text transform="matrix(1 0 0 1 244.1914 101.0357)" class="st32 st30 st31">R. Barbara Gitenstein Library</text>
			<polyline class="st28" points="393.18,60.86 399.23,54.81 399.23,74.38 			"/>
			<line class="st28" x1="399.23" y1="54.81" x2="405.06" y2="60.64"/>
		</g>
	</g>
</g>
</svg>
