<?xml version="1.0" encoding="utf-8"?>
<!-- Generator: Adobe Illustrator 24.0.0, SVG Export Plug-In . SVG Version: 6.00 Build 0)  -->
<svg version="1.1" xmlns="http://www.w3.org/2000/svg" xmlns:xlink="http://www.w3.org/1999/xlink" x="0px" y="0px"
	 viewBox="0 0 799.92 799.92" style="enable-background:new 0 0 799.92 799.92;" xml:space="preserve">
<style type="text/css">
	.st0{fill:#CCCCCB;stroke:#414042;stroke-width:4;stroke-linecap:round;stroke-linejoin:round;stroke-miterlimit:10;}
	.st1{fill:#F2F2F3;stroke:#414042;stroke-width:4;stroke-linecap:round;stroke-linejoin:round;stroke-miterlimit:10;}
	.st2{fill:#CE6759;}
	.st3{fill:#D8B5AF;}
	.st4{fill:#B5B5B6;}
	.st5{fill:#D8D8D8;}
	.st6{fill:#E6E7E8;}
	.st7{fill:none;stroke:#414042;stroke-width:6;stroke-miterlimit:10;}
	.st8{fill:#FFF200;}
	.st9{opacity:0.5;}
	.st10{opacity:0.5;fill:none;stroke:#FFFFFF;stroke-width:0.5366;stroke-miterlimit:10;}
	.st11{opacity:0.5;fill:none;stroke:#FFFFFF;stroke-width:0.5;stroke-miterlimit:10;}
	.st12{opacity:0.9;fill:#FFFFFF;}
	.st13{opacity:0.75;fill:#FFFFFF;}
	.st14{fill:#FFFFFF;}
	.st15{fill:none;stroke:#414042;stroke-width:4;stroke-linecap:round;stroke-linejoin:round;stroke-miterlimit:10;}
	.st16{opacity:0.9;fill:none;stroke:#FFFFFF;stroke-width:2;stroke-miterlimit:10;}
	.st17{fill:#939598;}
	.st18{fill:#414042;}
	.st19{fill:#CE685A;stroke:#010101;stroke-width:3;stroke-linecap:round;stroke-linejoin:round;stroke-miterlimit:10;}
	.st20{fill:#B5B6B6;stroke:#010101;stroke-width:3;stroke-linecap:round;stroke-linejoin:round;stroke-miterlimit:10;}
	.st21{fill:#010101;}
	.st22{opacity:0.21;fill:none;stroke:#FFFFFF;stroke-width:0.5;stroke-miterlimit:10;}
	.st23{fill:none;stroke:#FFFFFF;stroke-width:0.5;stroke-miterlimit:10;}
	.st24{fill:#BCBEC0;}
	.st25{fill:#CE6759;stroke:#414042;stroke-width:4;stroke-linecap:round;stroke-linejoin:round;stroke-miterlimit:10;}
	.st26{fill:#B5B5B6;stroke:#414042;stroke-width:4;stroke-linecap:round;stroke-linejoin:round;stroke-miterlimit:10;}
	.st27{fill:#D8D8D8;stroke:#414042;stroke-width:4;stroke-linecap:round;stroke-linejoin:round;stroke-miterlimit:10;}
	.st28{fill:none;}
	.st29{font-family:'OpenSans-Bold';}
	.st30{font-size:19px;}
	.st31{fill:none;stroke:#424142;stroke-width:2;stroke-linecap:round;stroke-linejoin:round;stroke-miterlimit:10;}
	.st32{fill:#424142;}
</style>
<g id="Layer_2">
</g>
<g id="Layer_3">
</g>
<g id="Layer_1">
	<rect x="0.26" y="0.25" class="st14" width="800.26" height="800.26"/>
	<g>
		<polygon class="st4" points="399.63,297.26 673.62,571.25 741.69,503.19 535.73,297.23 535.89,297.07 399.81,161 399.65,161.15 
			399.44,160.95 263.57,297.23 56.58,504.23 124.62,572.26 		"/>
		<polygon class="st6" points="399.63,297.26 124.62,572.26 192.66,640.3 399.65,433.31 605.61,639.27 673.62,571.25 		"/>
		<g>
			<path class="st13" d="M722.55,522.33l0.35-0.35l-22.53-22.53l18.3-18.3l-0.38-0.38l-18.3,18.3l-22.04-22.04l18.46-18.46
				l-0.38-0.38l-18.46,18.46l-22.04-22.04l18.05-18.05l-0.38-0.38l-18.05,18.05l-22.04-22.04l18.27-18.27l-0.38-0.38l-18.27,18.27
				l-22.04-22.04l18.27-18.27l-0.38-0.38l-18.27,18.27l-22.4-22.4l17.88-17.88l-0.38-0.38l-17.88,17.88l-22.04-22.04l17.94-17.94
				l-0.38-0.38l-17.94,17.94l-22.04-22.04l17.69-17.69l-0.38-0.38l-17.69,17.69l-22.04-22.04l17.99-17.99l-0.38-0.38l-17.99,17.99
				l-22.22-22.22l17.72-17.72l-0.38-0.38l-17.72,17.72l-22.04-22.04l18.32-18.32l-0.38-0.38l-18.32,18.32l-22.04-22.04l17.52-17.52
				l-0.38-0.38l-17.53,17.53l-22.04-22.04l17.69-17.69l-0.38-0.38l-17.69,17.69l-22.04-22.04l17.77-17.77l-0.38-0.38L408,207.07
				l-8.61-8.61l0.01-0.01l-18.23-18.23l-0.38,0.38l18.05,18.05l-21.94,21.94l-18.27-18.27l-0.38,0.38l18.27,18.27L354.48,243
				l-18.44-18.44l-0.38,0.38l18.44,18.44l-22.04,22.04l-18.02-18.03l-0.38,0.38l18.02,18.02l-22.04,22.04l-18.25-18.25l-0.38,0.38
				l18.25,18.25l-22.04,22.04l-18.24-18.25l-0.38,0.38l18.24,18.25l-22.4,22.4l-17.86-17.86l-0.38,0.38l17.86,17.86l-22.04,22.04
				l-17.92-17.91l-0.38,0.38l17.91,17.91l-22.04,22.04l-17.67-17.67l-0.38,0.38l17.67,17.67l-22.04,22.04l-17.97-17.97l-0.38,0.38
				l17.97,17.97l-22.22,22.22l-17.69-17.7l-0.38,0.38l17.69,17.69l-22.04,22.04l-18.3-18.3l-0.38,0.38l18.3,18.3l-22.04,22.04
				l-17.5-17.5l-0.38,0.38l17.5,17.5l-22.04,22.04L89.65,472.5l-0.38,0.38l17.67,17.67L84.9,512.58l-17.75-17.75l-0.38,0.38
				l17.75,17.75l-9.6,9.6l0.35,0.35l20.7-20.7l16.33,16.33l-20.42,20.42l0.35,0.35l8.64-8.64L117.21,547l-8.93,8.93l0.35,0.35
				l21.29-21.29l16.71,16.71l0.38-0.38l-16.71-16.71l22.04-22.04l16.71,16.71l0.38-0.38l-16.71-16.71l22.04-22.04l16.71,16.71
				l0.38-0.38l-16.71-16.71l22.04-22.04l16.71,16.71l0.38-0.38l-16.71-16.71l22.04-22.04l16.71,16.71l0.38-0.38l-16.71-16.71
				l44.64-44.64L281.33,417l0.38-0.38L265,399.91l22.04-22.04l16.71,16.71l0.38-0.38l-16.71-16.71l22.04-22.04l16.71,16.71
				l0.38-0.38l-16.71-16.71l22.4-22.4l16.71,16.71l0.38-0.38l-16.71-16.71l22.04-22.04l16.71,16.71l0.38-0.38l-16.71-16.71
				l22.04-22.04l16.71,16.71l0.38-0.38l-16.71-16.71l21.74-21.74l31.6,31.6l-16.68,16.68l0.38,0.38l16.68-16.68l22.04,22.04
				l-16.68,16.68l0.38,0.38l16.68-16.68l22.04,22.04l-16.68,16.68l0.38,0.38l16.68-16.68l22.22,22.22l-16.68,16.68l0.38,0.38
				l16.68-16.68l22.04,22.04l-16.68,16.68l0.38,0.38l16.68-16.68l22.04,22.04l-16.68,16.68l0.38,0.38l16.68-16.68l22.04,22.04
				l-16.68,16.68l0.38,0.38l16.68-16.68l22.4,22.4l-16.68,16.68l0.38,0.38l16.68-16.68l22.04,22.04l-16.68,16.68l0.38,0.38
				l16.68-16.68l22.04,22.04l-16.68,16.68l0.38,0.38l16.68-16.68l20.29,20.29l-16.85,16.85l0.38,0.38l16.85-16.85l11.43,11.43
				l-0.22,0.22l0.38,0.38l0.22-0.22l11.92,11.92l-16.9,16.9l0.38,0.38l16.9-16.9l10.9,10.9l0.35-0.35l-23.2-23.2l16.33-16.33
				l11.39,11.39l-0.44,0.44l0.38,0.38l0.44-0.44l11.43,11.43l0.35-0.35l-11.43-11.43l16.33-16.33L722.55,522.33z M649.96,482.39
				l16.33-16.33l22.04,22.04L672,504.43L649.96,482.39z M627.54,459.97l16.33-16.33l22.04,22.04l-16.33,16.33L627.54,459.97z
				 M605.12,437.55l16.24-16.24l-0.38-0.38l-16.24,16.24l-22.4-22.4l16.33-16.33l44.82,44.82l-16.33,16.33L605.12,437.55z
				 M559.92,392.34l16.33-16.33l22.04,22.04l-16.33,16.33L559.92,392.34z M537.5,369.92l16.33-16.33l22.04,22.04l-16.33,16.33
				L537.5,369.92z M515.08,347.51l16.33-16.33l22.04,22.04l-16.33,16.33L515.08,347.51z M470.06,302.48l16.33-16.33l22.04,22.04
				l-16.33,16.33L470.06,302.48z M447.64,280.06l16.33-16.33L486,285.78l-16.33,16.33L447.64,280.06z M399.56,231.99l16.33-16.33
				l25.28,25.28l-16.33,16.33L399.56,231.99z M399.04,231.8l-15.28,15.28l-16.33-16.33l31.78-31.78l16.33,16.33L399.04,231.8z
				 M383.38,247.46L359.84,271l-16.33-16.33l23.54-23.54L383.38,247.46z M359.46,271.38l-22.04,22.04l-16.33-16.33l22.04-22.04
				L359.46,271.38z M337.04,293.8L315,315.84l-16.22-16.22L298.4,300l16.22,16.22l-22.4,22.4l-16.33-16.33l44.82-44.82L337.04,293.8
				z M291.84,339.01l-22.04,22.04l-16.33-16.33l22.04-22.04L291.84,339.01z M269.42,361.42l-22.04,22.04l-16.33-16.33l22.04-22.04
				L269.42,361.42z M247,383.84l-44.64,44.64l-16.33-16.33l44.64-44.64L247,383.84z M201.98,428.87l-22.04,22.04l-16.33-16.33
				l22.04-22.04L201.98,428.87z M179.56,451.28l-22.04,22.04L141.19,457l22.04-22.04L179.56,451.28z M157.14,473.7l-22.04,22.04
				l-16.33-16.33l22.04-22.04L157.14,473.7z M145.72,485.83l16.33,16.33l-22.04,22.04l-16.33-16.33L145.72,485.83z M146.1,485.45
				l22.04-22.04l16.33,16.33l-22.04,22.04L146.1,485.45z M168.52,463.03l22.04-22.04l16.33,16.33l-22.04,22.04L168.52,463.03z
				 M190.94,440.61l22.22-22.22l16.33,16.33l-22.22,22.22L190.94,440.61z M213.54,418.01l22.04-22.04l16.33,16.33l-22.04,22.04
				L213.54,418.01z M235.96,395.59L258,373.55l16.33,16.33l-22.04,22.04L235.96,395.59z M258.38,373.17l22.04-22.04l16.33,16.33
				l-22.04,22.04L258.38,373.17z M280.8,350.75l22.4-22.4l16.33,16.33l-22.4,22.4L280.8,350.75z M303.58,327.97l22.04-22.04
				l16.33,16.33l-22.04,22.04L303.58,327.97z M326,305.55l22.04-22.04l16.33,16.33l-22.04,22.04L326,305.55z M348.42,283.13
				l22.04-22.04l16.33,16.33l-22.04,22.04L348.42,283.13z M370.84,260.71l28.37-28.37l16.3,16.3l-17.08,17.08l0.03,0.03
				l-11.28,11.28L370.84,260.71z M415.89,249.02l22.55,22.55l-16.33,16.33l-22.55-22.55L415.89,249.02z M425.22,257.64l16.33-16.33
				l22.04,22.04l-16.33,16.33L425.22,257.64z M508.8,308.58l22.22,22.22l-16.33,16.33l-22.22-22.22L508.8,308.58z M96.35,501.84
				l22.04-22.04l16.33,16.33l-22.04,22.04L96.35,501.84z M101.26,530.29l22.04-22.04l16.33,16.33l-22.04,22.04L101.26,530.29z
				 M431.17,296.95L431.17,296.95l-8.68-8.68l16.33-16.33l18.74,18.74l-16.33,16.33l-9.68-9.68l0,0L431.17,296.95z M453.59,319.37
				L453.59,319.37l-11.98-11.98l16.33-16.33l22.04,22.04l-16.33,16.33l-9.68-9.68l0,0L453.59,319.37z M498.61,364.39L498.61,364.39
				l-22.22-22.22l0,0l-0.38-0.38l0,0l-11.98-11.98l16.33-16.33l44.64,44.64l-16.33,16.33l-9.68-9.68l0,0L498.61,364.39z
				 M521.03,386.81L521.03,386.81l-11.98-11.98l16.33-16.33l22.04,22.04l-16.33,16.33l-9.68-9.68l0,0L521.03,386.81z M543.45,409.23
				L543.45,409.23l-11.98-11.98l16.33-16.33l22.04,22.04l-16.33,16.33l-9.68-9.68l0,0L543.45,409.23z M565.87,431.65L565.87,431.65
				l-11.99-11.98l16.33-16.33l22.4,22.4l-16.33,16.33l-10.04-10.04l0,0L565.87,431.65z M588.65,454.44L588.65,454.44l-11.98-11.98
				l16.33-16.33l22.04,22.04L598.7,464.5l-9.68-9.68l0,0L588.65,454.44z M611.07,476.86L611.07,476.86l-11.98-11.98l16.33-16.33
				l22.04,22.04l-16.33,16.33l-9.68-9.68l0,0L611.07,476.86z M633.49,499.28L633.49,499.28L621.5,487.3l16.33-16.33l22.04,22.04
				l-16.33,16.33l-9.68-9.68l0,0L633.49,499.28z M665.96,531.76l-22.04-22.04l16.33-16.33l22.04,22.04L665.96,531.76z
				 M694.42,526.85l-22.04-22.04l16.33-16.33l22.04,22.04L694.42,526.85z"/>
		</g>
		
			<rect x="625.42" y="455.92" transform="matrix(0.7071 -0.7071 0.7071 0.7071 -158.1373 623.3154)" class="st2" width="95.84" height="93.25"/>
		<line class="st15" x1="125.79" y1="435.02" x2="193.82" y2="503.06"/>
		<line class="st16" x1="192.81" y1="502.04" x2="260.85" y2="570.08"/>
		<line class="st15" x1="401.56" y1="296.36" x2="466.9" y2="231.02"/>
		<line class="st15" x1="332.52" y1="231.02" x2="397.68" y2="296.19"/>
		<line class="st15" x1="263.54" y1="299.82" x2="330.3" y2="366.58"/>
		<line class="st16" x1="331.21" y1="367.5" x2="397.97" y2="434.26"/>
		<line class="st15" x1="194.29" y1="369.07" x2="261.05" y2="435.83"/>
		<line class="st16" x1="261.18" y1="435.96" x2="327.94" y2="502.73"/>
		<line class="st15" x1="468.82" y1="366.14" x2="536.28" y2="298.68"/>
		<line class="st16" x1="400.58" y1="434.39" x2="468.03" y2="366.93"/>
		<line class="st15" x1="536.97" y1="434.6" x2="605.04" y2="366.54"/>
		<line class="st16" x1="470.65" y1="500.93" x2="536.97" y2="434.6"/>
		<line class="st15" x1="605.74" y1="502.55" x2="672.75" y2="435.53"/>
		<path class="st17" d="M192.66,642.3c-0.51,0-1.02-0.2-1.41-0.59l-68.04-68.04c-0.78-0.78-0.78-2.05,0-2.83l275.01-275.01
			c0.75-0.75,2.08-0.75,2.83,0l274,274c0.78,0.78,0.78,2.05,0,2.83l-68.01,68.01c-0.75,0.75-2.08,0.75-2.83,0L399.65,436.14
			L194.07,641.72C193.68,642.11,193.17,642.3,192.66,642.3z M127.45,572.26l65.21,65.21L398.24,431.9c0.75-0.75,2.08-0.75,2.83,0
			l204.54,204.54l65.19-65.19L399.63,300.09L127.45,572.26z"/>
		<g>
			<path class="st14" d="M669.4,525.59v-46.32h9.82v46.32H669.4z"/>
		</g>
		<line class="st16" x1="538.51" y1="569.77" x2="605.53" y2="502.75"/>
		<path class="st18" d="M124.62,574.26c-0.51,0-1.02-0.2-1.41-0.59l-68.04-68.04c-0.38-0.38-0.59-0.88-0.59-1.41
			s0.21-1.04,0.59-1.41l342.86-343.28c0.51-0.51,1.22-0.68,1.86-0.53c0.48,0.02,0.96,0.21,1.33,0.58L537.3,295.66
			c0.23,0.23,0.4,0.51,0.49,0.81L743.1,501.78c0.78,0.78,0.78,2.05,0,2.83l-68.06,68.06c-0.75,0.75-2.08,0.75-2.83,0L399.63,300.09
			L126.03,573.68C125.64,574.07,125.13,574.26,124.62,574.26z M59.41,504.23l65.21,65.21l273.59-273.59c0.75-0.75,2.08-0.75,2.83,0
			l272.58,272.58l65.24-65.24L534.31,298.65c-0.23-0.23-0.4-0.51-0.49-0.81L399.6,163.62L59.41,504.23z"/>
	</g>
	<g>
		<g>
			<rect x="207.4" y="698.69" class="st28" width="383.44" height="32.65"/>
			<text transform="matrix(1 0 0 1 326.0115 713.1304)" class="st18 st29 st30">EICKHOFF HALL</text>
			<polyline class="st31" points="405.06,739.9 399.01,745.95 399.01,726.37 			"/>
			<line class="st31" x1="399.01" y1="745.95" x2="393.18" y2="740.12"/>
		</g>
		<g>
			<rect x="1" y="86.6" class="st28" width="799.92" height="16.33"/>
			<text transform="matrix(1 0 0 1 244.1932 101.0357)" class="st32 st29 st30">R. Barbara Gitenstein Library</text>
			<polyline class="st31" points="393.18,60.86 399.23,54.81 399.23,74.38 			"/>
			<line class="st31" x1="399.23" y1="54.81" x2="405.06" y2="60.64"/>
		</g>
	</g>
</g>
</svg>
