<?xml version="1.0" encoding="utf-8"?>
<!-- Generator: Adobe Illustrator 24.0.0, SVG Export Plug-In . SVG Version: 6.00 Build 0)  -->
<svg version="1.1" xmlns="http://www.w3.org/2000/svg" xmlns:xlink="http://www.w3.org/1999/xlink" x="0px" y="0px"
	 viewBox="0 0 799.92 799.92" style="enable-background:new 0 0 799.92 799.92;" xml:space="preserve">
<style type="text/css">
	.st0{fill:#CCCCCB;stroke:#414042;stroke-width:4;stroke-linecap:round;stroke-linejoin:round;stroke-miterlimit:10;}
	.st1{fill:#F2F2F3;stroke:#414042;stroke-width:4;stroke-linecap:round;stroke-linejoin:round;stroke-miterlimit:10;}
	.st2{fill:#CE6759;}
	.st3{fill:#D8B5AF;}
	.st4{fill:#B5B5B6;}
	.st5{fill:#D8D8D8;}
	.st6{fill:#E6E7E8;}
	.st7{fill:none;stroke:#414042;stroke-width:6;stroke-miterlimit:10;}
	.st8{fill:#FFF200;}
	.st9{opacity:0.5;}
	.st10{opacity:0.5;fill:none;stroke:#FFFFFF;stroke-width:0.5366;stroke-miterlimit:10;}
	.st11{opacity:0.5;fill:none;stroke:#FFFFFF;stroke-width:0.5;stroke-miterlimit:10;}
	.st12{opacity:0.9;fill:#FFFFFF;}
	.st13{opacity:0.75;fill:#FFFFFF;}
	.st14{fill:#FFFFFF;}
	.st15{opacity:0.9;fill:none;stroke:#FFFFFF;stroke-width:2;stroke-miterlimit:10;}
	.st16{fill:none;stroke:#939598;stroke-width:4;stroke-linecap:round;stroke-linejoin:round;stroke-miterlimit:10;}
	.st17{fill:none;stroke:#414042;stroke-width:4;stroke-linecap:round;stroke-linejoin:round;stroke-miterlimit:10;}
	.st18{fill:#939598;}
	.st19{fill:#414042;}
	.st20{fill:#CE685A;stroke:#010101;stroke-width:3;stroke-linecap:round;stroke-linejoin:round;stroke-miterlimit:10;}
	.st21{fill:#B5B6B6;stroke:#010101;stroke-width:3;stroke-linecap:round;stroke-linejoin:round;stroke-miterlimit:10;}
	.st22{fill:#010101;}
	.st23{opacity:0.21;fill:none;stroke:#FFFFFF;stroke-width:0.5;stroke-miterlimit:10;}
	.st24{fill:none;stroke:#FFFFFF;stroke-width:0.5;stroke-miterlimit:10;}
	.st25{fill:#CE6759;stroke:#414042;stroke-width:4;stroke-linecap:round;stroke-linejoin:round;stroke-miterlimit:10;}
	.st26{fill:#B5B5B6;stroke:#414042;stroke-width:4;stroke-linecap:round;stroke-linejoin:round;stroke-miterlimit:10;}
	.st27{fill:#D8D8D8;stroke:#414042;stroke-width:4;stroke-linecap:round;stroke-linejoin:round;stroke-miterlimit:10;}
	.st28{fill:#BCBEC0;}
	.st29{fill:none;stroke:#424142;stroke-width:2;stroke-linecap:round;stroke-linejoin:round;stroke-miterlimit:10;}
	.st30{fill:#424142;}
</style>
<g id="Layer_2">
</g>
<g id="Layer_3">
</g>
<g id="Layer_1">
	<rect x="-0.05" y="0.23" class="st14" width="800.02" height="799.7"/>
	<g>
		<path class="st6" d="M72.5,481.85l165.33,165.33l320.59,1.11l166.93-166.93L398.99,153.54C398.99,153.54,73.28,481.85,72.5,481.85
			z"/>
		<path class="st12" d="M596.94,480.91l-1.41-1.41l-65.6,65.6l-63.77-63.77l67.06-67.06l-1.41-1.41l-67.06,67.06l-63.72-63.73
			l64.8-64.8l-1.41-1.41l-64.8,64.8l-64.26-64.26l-1.41,1.41l64.26,64.26l-64.62,64.62l-65-65l-1.41,1.41l65,65l-62.69,62.69
			l-66.1-66.1l-1.41,1.41l66.1,66.1l-65,65l1.41,1.41l65-65l63.72,63.72l-34.26,34.26l1.41,1.41l34.26-34.26l35.74,35.74l1.41-1.41
			l-35.74-35.74l62.69-62.69l63.77,63.77l-34.37,34.37l1.41,1.41l34.37-34.37l34.43,34.43l1.41-1.41l-34.43-34.43l64.62-64.62
			l64.24,64.24l1.41-1.41l-64.24-64.24L596.94,480.91z M399.6,417.61l63.72,63.73l-64.62,64.62l-63.72-63.73L399.6,417.61z
			 M334.6,610.06l-63.72-63.72l62.69-62.69l63.72,63.73L334.6,610.06z M463.89,611.13l-63.77-63.77l64.62-64.62l63.77,63.77
			L463.89,611.13z"/>
		<path class="st18" d="M558.43,650.29C558.42,650.29,558.42,650.29,558.43,650.29l-320.33-1.11c-0.53,0-1.04-0.21-1.41-0.59
			L71.52,483.05c-0.57-0.57-0.74-1.43-0.43-2.18c0.14-0.34,0.37-0.63,0.65-0.84c6.61-5.9,323.22-323.52,326.43-326.74
			c0.75-0.75,2.08-0.75,2.83,0l325.77,326.64c0.78,0.78,0.78,2.05,0,2.83L559.84,649.7C559.46,650.08,558.96,650.29,558.43,650.29z
			 M238.93,645.18l318.67,1.1l164.93-164.93L399.59,157.54c-11.21,11.24-86.82,87.1-161.62,162.05
			c-47.36,47.45-85.12,85.27-112.25,112.38c-15.33,15.33-28.13,28.1-37.11,37.04c-4.5,4.47-8.04,7.99-10.47,10.38
			c-0.98,0.97-1.74,1.71-2.33,2.29L238.93,645.18z"/>
		<polygon class="st4" points="399.88,284.24 661.16,545.53 726.07,480.62 529.67,284.22 529.82,284.07 400.05,154.3 399.9,154.46 
			399.7,154.26 270.14,284.22 72.75,481.61 137.63,546.49 		"/>
		<path class="st13" d="M686.68,477.05l17.45-17.45l-0.36-0.36l-17.45,17.45l-21.02-21.02l17.6-17.6l-0.36-0.36l-17.6,17.6
			l-21.02-21.02l17.21-17.21l-0.36-0.36l-17.21,17.21l-21.02-21.02l17.42-17.42l-0.36-0.36l-17.42,17.42l-21.02-21.02l17.42-17.42
			l-0.36-0.36l-17.42,17.42l-21.36-21.36l17.05-17.05l-0.36-0.36l-17.05,17.05l-21.02-21.02l17.1-17.11l-0.36-0.36l-17.11,17.11
			l-21.02-21.02l16.87-16.87l-0.36-0.36l-16.87,16.87l-21.02-21.02l17.16-17.16l-0.36-0.36l-17.16,17.16l-21.19-21.19l16.9-16.9
			l-0.36-0.36l-16.9,16.9l-21.02-21.02l17.47-17.47l-0.36-0.36L472,262.38l-21.02-21.02l16.71-16.71l-0.36-0.36L450.62,241
			l-21.02-21.02l16.87-16.87l-0.36-0.36l-16.87,16.87l-21.02-21.02l16.95-16.95l-0.36-0.36l-16.95,16.95l-8.22-8.22l0.01-0.01
			l-17.38-17.38l-0.36,0.36l17.21,17.21l-20.92,20.92l-17.42-17.43l-0.36,0.36l17.42,17.42l-21.02,21.02l-17.58-17.58l-0.36,0.36
			l17.58,17.58l-21.02,21.02l-17.19-17.19l-0.36,0.36l17.19,17.19l-21.02,21.02l-17.4-17.4l-0.36,0.36l17.4,17.4l-21.02,21.02
			l-17.4-17.4l-0.36,0.36l17.4,17.4l-21.36,21.36l-17.03-17.03l-0.36,0.36l17.03,17.03l-21.02,21.02l-17.08-17.08l-0.36,0.36
			l17.08,17.08l-21.02,21.02l-16.85-16.85l-0.36,0.36l16.85,16.85l-21.02,21.02l-17.14-17.14l-0.36,0.36l17.14,17.14l-21.19,21.19
			l-16.87-16.87l-0.36,0.36l16.87,16.87l-21.02,21.02l-17.45-17.45l-0.36,0.36l17.45,17.45l-21.02,21.02l-16.69-16.69l-0.36,0.36
			l16.69,16.69l-21.02,21.02l-16.85-16.85l-0.36,0.36l16.85,16.85l-21.02,21.02l-16.93-16.93l-0.36,0.36l16.93,16.93l-9.16,9.16
			l0.34,0.34l19.74-19.74l15.57,15.57l-19.47,19.47l0.34,0.34l8.24-8.24l15.57,15.57l-8.51,8.51l0.34,0.34l20.3-20.3l15.93,15.93
			l0.36-0.36l-15.93-15.93l21.02-21.02L180,505.5l0.36-0.36l-15.93-15.93l21.02-21.02l15.93,15.93l0.36-0.36l-15.93-15.93
			l21.02-21.02l15.93,15.93l0.36-0.36l-15.93-15.93l21.02-21.02l15.93,15.93l0.36-0.36l-15.93-15.93l42.57-42.57l15.93,15.93
			l0.36-0.36l-15.93-15.93l21.02-21.02l15.93,15.93l0.36-0.36l-15.93-15.93l21.02-21.02l15.93,15.93l0.36-0.36l-15.93-15.93
			l21.36-21.36l15.93,15.93l0.36-0.36l-15.93-15.93L357,296.63l15.93,15.93l0.36-0.36l-15.93-15.93l21.02-21.02l15.93,15.93
			l0.36-0.36l-15.93-15.93l20.73-20.73l30.14,30.14l-15.91,15.91l0.36,0.36l15.91-15.91L451,305.67l-15.91,15.91l0.36,0.36
			l15.91-15.91l21.02,21.02l-15.91,15.91l0.36,0.36l15.91-15.91l21.19,21.19l-15.91,15.91l0.36,0.36l15.91-15.91l21.02,21.02
			l-15.91,15.91l0.36,0.36l15.91-15.91l21.02,21.02l-15.91,15.91l0.36,0.36l15.91-15.91l21.02,21.02l-15.91,15.91l0.36,0.36
			l15.91-15.91l21.36,21.36l-15.91,15.91l0.36,0.36l15.91-15.91l21.02,21.02l-15.91,15.91l0.36,0.36l15.91-15.91l21.02,21.02
			l-15.91,15.91l0.36,0.36l15.91-15.91l19.35,19.35L626.19,513l0.36,0.36l16.07-16.07l22.63,22.63l-16.12,16.12l0.36,0.36
			l16.12-16.12l10.39,10.39l0.34-0.34l-22.12-22.12l15.57-15.57l22.12,22.12l0.34-0.34l-10.9-10.9l15.57-15.57l10.9,10.9l0.34-0.34
			L686.68,477.05z M675.18,466.23l-15.57,15.57l-21.02-21.02l15.57-15.57L675.18,466.23z M653.81,444.85l-15.57,15.57l-21.02-21.02
			l15.57-15.57L653.81,444.85z M632.43,423.47l-15.57,15.57l-21.02-21.02l15.49-15.49l-0.36-0.36l-15.49,15.49l-21.37-21.36
			l15.57-15.57L632.43,423.47z M589.32,380.37l-15.57,15.57l-21.02-21.02l15.57-15.57L589.32,380.37z M567.94,358.99l-15.57,15.57
			l-21.02-21.02l15.57-15.57L567.94,358.99z M546.56,337.61l-15.57,15.57l-21.02-21.02l15.57-15.57L546.56,337.61z M525.18,316.23
			l-15.57,15.57l-21.19-21.19l15.57-15.57L525.18,316.23z M503.63,294.68l-15.57,15.57l-21.02-21.02l15.57-15.57L503.63,294.68z
			 M482.25,273.3l-15.57,15.57l-21.02-21.02l15.57-15.57L482.25,273.3z M460.87,251.92l-15.57,15.57l-21.02-21.02l15.57-15.57
			L460.87,251.92z M439.49,230.54l-15.57,15.57l-24.1-24.1l15.57-15.57L439.49,230.54z M399.48,190.53l15.57,15.57l-15.73,15.73
			l-14.57,14.57l-15.57-15.57L399.48,190.53z M368.82,221.19l15.57,15.57l-22.45,22.45l-15.57-15.57L368.82,221.19z M346.01,244
			l15.57,15.57l-21.02,21.02l-15.57-15.57L346.01,244z M324.63,265.38l15.57,15.57l-21.02,21.02l-15.47-15.47l-0.36,0.36
			l15.47,15.47l-21.36,21.36l-15.57-15.57L324.63,265.38z M281.52,308.49l15.57,15.57l-21.02,21.02L260.5,329.5L281.52,308.49z
			 M260.14,329.86l15.57,15.57l-21.02,21.02l-15.57-15.57L260.14,329.86z M238.76,351.24l15.57,15.57l-42.57,42.57l-15.57-15.57
			L238.76,351.24z M195.83,394.18l15.57,15.57l-21.02,21.02l-15.57-15.57L195.83,394.18z M174.45,415.56l15.57,15.57L169,452.14
			l-15.57-15.57L174.45,415.56z M153.07,436.94l15.57,15.57l-21.02,21.02l-15.57-15.57L153.07,436.94z M110.67,479.33l21.02-21.02
			l15.57,15.57l-21.02,21.02L110.67,479.33z M130.92,522.04l-15.57-15.57l21.02-21.02l15.57,15.57L130.92,522.04z M152.3,500.66
			l-15.57-15.57l21.02-21.02l15.57,15.57L152.3,500.66z M173.68,479.28l-15.57-15.57l21.02-21.02l15.57,15.57L173.68,479.28z
			 M195.06,457.9l-15.57-15.57l21.02-21.02l15.57,15.57L195.06,457.9z M216.44,436.52l-15.57-15.57l21.19-21.19l15.57,15.57
			L216.44,436.52z M237.99,414.97l-15.57-15.57l21.02-21.02l15.57,15.57L237.99,414.97z M259.37,393.59l-15.57-15.57L264.82,357
			l15.57,15.57L259.37,393.59z M280.75,372.21l-15.57-15.57l21.02-21.02l15.57,15.57L280.75,372.21z M302.13,350.83l-15.57-15.57
			l21.36-21.36l15.57,15.57L302.13,350.83z M323.86,329.1l-15.57-15.57l21.02-21.02l15.57,15.57L323.86,329.1z M345.24,307.72
			l-15.57-15.57l21.02-21.02l15.57,15.57L345.24,307.72z M366.62,286.34l-15.57-15.57l21.02-21.02l15.57,15.57L366.62,286.34z
			 M398.76,254.2L388,264.96l-15.57-15.57l27.05-27.05l15.54,15.54l-16.29,16.29L398.76,254.2z M399.81,253.82l15.57-15.57
			l21.5,21.5l-15.57,15.57L399.81,253.82z M430.32,284.32L430.32,284.32l-0.36-0.36l0,0l-8.28-8.28l15.57-15.57l17.87,17.87
			l-15.57,15.57L430.32,284.32z M451.69,305.7L451.69,305.7l-0.36-0.36l0,0l-11.43-11.43l15.57-15.57l21.02,21.02l-15.57,15.57
			L451.69,305.7z M494.63,348.63L494.63,348.63l-0.36-0.36l0,0l-21.19-21.19l0,0l-0.36-0.36l0,0l-11.43-11.43l15.57-15.57
			l42.57,42.57l-15.57,15.57L494.63,348.63z M516.01,370.01L516.01,370.01l-0.36-0.36l0,0l-11.43-11.43l15.57-15.57l21.02,21.02
			l-15.57,15.57L516.01,370.01z M537.39,391.39L537.39,391.39l-0.36-0.36l0,0L525.6,379.6l15.57-15.57l21.02,21.02l-15.57,15.57
			L537.39,391.39z M558.77,412.77L558.77,412.77l-0.36-0.36l0,0l-11.43-11.43l15.57-15.57l21.36,21.36l-15.57,15.57L558.77,412.77z
			 M580.49,434.49L580.49,434.49l-0.36-0.36l0,0l-11.43-11.43l15.57-15.57l21.02,21.02l-15.57,15.57L580.49,434.49z M601.87,455.87
			L601.87,455.87l-0.36-0.36l0,0l-11.43-11.43l15.57-15.57l21.02,21.02L611.1,465.1L601.87,455.87z M623.25,477.25L623.25,477.25
			l-0.36-0.36l0,0l-11.43-11.43l15.57-15.57l21.02,21.02l-15.57,15.57L623.25,477.25z M653.86,507.86l-21.02-21.02l15.57-15.57
			l21.02,21.02L653.86,507.86z M680.99,503.18l-21.02-21.02l15.57-15.57l21.02,21.02L680.99,503.18z"/>
		
			<rect x="92.5" y="436.03" transform="matrix(0.7071 -0.7071 0.7071 0.7071 -299.2843 238.4579)" class="st2" width="91.39" height="88.93"/>
		<g>
			<path class="st14" d="M150.92,502.9l-3.2-10.51h-16.1l-3.2,10.51h-10.09l15.59-44.35h11.45l15.65,44.35H150.92z M145.48,484.53
				c-2.96-9.53-4.63-14.92-5-16.17c-0.37-1.25-0.64-2.24-0.8-2.96c-0.66,2.58-2.57,8.95-5.71,19.13H145.48z"/>
		</g>
		<path class="st19" d="M727.42,479.27L401.4,152.96c-0.35-0.35-0.81-0.54-1.27-0.56c-0.62-0.14-1.29,0.03-1.78,0.51L71.4,480.26
			c-0.36,0.36-0.56,0.84-0.56,1.35s0.2,0.99,0.56,1.35l64.88,64.88c0.37,0.37,0.86,0.56,1.35,0.56c0.49,0,0.98-0.19,1.35-0.56
			l129.7-129.7c0.17-0.09,0.33-0.2,0.47-0.34c0.14-0.14,0.25-0.3,0.34-0.47l130.39-130.39l259.94,259.94c0.72,0.72,1.98,0.72,2.7,0
			l64.91-64.91C728.16,481.23,728.16,480.02,727.42,479.27z M533.62,415.28l62.21-62.21l62.35,62.35l-62.21,62.21L533.62,415.28z
			 M468.48,350.15l62.21-62.21L593,350.25l-62.21,62.21L468.48,350.15z M527.95,285.02l-62.3,62.3l-62.51-62.51l62.31-62.31
			c0.02-0.02,0.03-0.04,0.05-0.06l62.36,62.36C527.87,284.87,527.91,284.94,527.95,285.02z M333.83,347.59l-62.3-62.31l62.84-62.92
			c0.04,0.04,0.06,0.09,0.1,0.13l62.14,62.14c0.03,0.03,0.06,0.05,0.1,0.08L333.83,347.59z M267.8,413.63l-62.26-62.26l63.17-63.24
			l62.3,62.3L267.8,413.63z M203.69,477.73l-62.23-62.23l61.24-61.32l62.26,62.26L203.69,477.73z M399.85,156.8l62.82,62.82
			c-0.02,0.02-0.04,0.03-0.06,0.05l-62.31,62.31c-0.12,0.12-0.22,0.25-0.3,0.39c-0.06,0-0.12-0.01-0.18-0.01
			c-0.1-0.2-0.22-0.39-0.38-0.55l-62.14-62.14c-0.04-0.04-0.09-0.07-0.13-0.11L399.85,156.8z M137.63,543.8l-62.19-62.19
			l63.19-63.27l62.22,62.22L137.63,543.8z M661.16,542.83l-62.37-62.37l62.21-62.21l62.37,62.37L661.16,542.83z"/>
	</g>
	<g>
		<g>
			<path class="st19" d="M335.53,713.13h-7.81v-13.56h7.81v2.36h-4.94v2.98h4.59v2.36h-4.59v3.5h4.94V713.13z"/>
			<path class="st19" d="M338.36,713.13v-13.56h2.88v13.56H338.36z"/>
			<path class="st19" d="M350.41,701.77c-1.08,0-1.92,0.41-2.51,1.22s-0.89,1.95-0.89,3.4c0,3.02,1.13,4.54,3.4,4.54
				c0.95,0,2.11-0.24,3.46-0.71v2.41c-1.11,0.46-2.36,0.7-3.73,0.7c-1.97,0-3.48-0.6-4.53-1.79c-1.05-1.2-1.57-2.92-1.57-5.15
				c0-1.41,0.26-2.64,0.77-3.71c0.51-1.06,1.25-1.87,2.21-2.44c0.96-0.57,2.09-0.85,3.38-0.85c1.32,0,2.64,0.32,3.97,0.96
				l-0.93,2.34c-0.51-0.24-1.02-0.45-1.53-0.63C351.41,701.85,350.9,701.77,350.41,701.77z"/>
			<path class="st19" d="M367.66,713.13h-3.27l-3.55-5.71l-1.22,0.87v4.84h-2.88v-13.56h2.88v6.21l1.13-1.6l3.67-4.61h3.19l-4.73,6
				L367.66,713.13z"/>
			<path class="st19" d="M380.49,713.13h-2.87v-5.85h-5.37v5.85h-2.88v-13.56h2.88v5.32h5.37v-5.32h2.87V713.13z"/>
			<path class="st19" d="M396.22,706.33c0,2.25-0.56,3.97-1.67,5.18c-1.11,1.21-2.71,1.81-4.79,1.81s-3.67-0.6-4.79-1.81
				c-1.11-1.21-1.67-2.94-1.67-5.2c0-2.26,0.56-3.98,1.67-5.17c1.12-1.19,2.72-1.79,4.8-1.79c2.08,0,3.68,0.6,4.78,1.8
				C395.67,702.35,396.22,704.08,396.22,706.33z M386.32,706.33c0,1.52,0.29,2.66,0.86,3.42s1.43,1.15,2.58,1.15
				c2.29,0,3.44-1.52,3.44-4.57c0-3.05-1.14-4.58-3.42-4.58c-1.14,0-2.01,0.38-2.59,1.15C386.61,703.67,386.32,704.81,386.32,706.33
				z"/>
			<path class="st19" d="M401.86,713.13h-2.83v-13.56h7.77v2.36h-4.94v3.5h4.6v2.35h-4.6V713.13z"/>
			<path class="st19" d="M412.29,713.13h-2.83v-13.56h7.77v2.36h-4.94v3.5h4.6v2.35h-4.6V713.13z"/>
			<path class="st19" d="M435.94,713.13h-2.87v-5.85h-5.37v5.85h-2.88v-13.56h2.88v5.32h5.37v-5.32h2.87V713.13z"/>
			<path class="st19" d="M447.66,713.13l-0.98-3.23h-4.94l-0.98,3.23h-3.1l4.79-13.62h3.52l4.81,13.62H447.66z M445.99,707.49
				c-0.91-2.93-1.42-4.58-1.54-4.96c-0.11-0.38-0.2-0.69-0.25-0.91c-0.2,0.79-0.79,2.75-1.75,5.87H445.99z"/>
			<path class="st19" d="M452.47,713.13v-13.56h2.88v11.19h5.5v2.38H452.47z"/>
			<path class="st19" d="M463.2,713.13v-13.56h2.88v11.19h5.5v2.38H463.2z"/>
		</g>
		<path class="st30" d="M405.77,739.19c-0.39-0.39-1.02-0.39-1.41,0l-4.35,4.35v-17.16c0-0.55-0.45-1-1-1s-1,0.45-1,1v17.16
			l-4.12-4.12c-0.39-0.39-1.02-0.39-1.41,0s-0.39,1.02,0,1.41l5.83,5.83c0.01,0.01,0.02,0.01,0.03,0.02
			c0.09,0.08,0.18,0.15,0.29,0.2c0,0,0,0,0,0c0.12,0.05,0.25,0.08,0.38,0.08c0.13,0,0.26-0.03,0.38-0.07
			c0.12-0.05,0.23-0.12,0.33-0.22l6.05-6.05C406.16,740.21,406.16,739.58,405.77,739.19z"/>
	</g>
	<g>
		<g>
			<path class="st30" d="M248.77,95.83v5.21h-2.88V87.47h3.95c1.84,0,3.21,0.34,4.09,1.01c0.88,0.67,1.33,1.69,1.33,3.06
				c0,0.8-0.22,1.51-0.66,2.13c-0.44,0.62-1.06,1.11-1.86,1.46c2.04,3.05,3.37,5.02,3.99,5.91h-3.19l-3.24-5.21H248.77z
				 M248.77,93.49h0.93c0.91,0,1.58-0.15,2.01-0.45c0.43-0.3,0.65-0.78,0.65-1.43c0-0.64-0.22-1.1-0.66-1.37
				c-0.44-0.27-1.13-0.41-2.05-0.41h-0.87V93.49z"/>
			<path class="st30" d="M257.82,99.71c0-0.52,0.14-0.91,0.42-1.18s0.68-0.4,1.22-0.4c0.51,0,0.91,0.14,1.19,0.41
				c0.28,0.27,0.42,0.66,0.42,1.17c0,0.49-0.14,0.87-0.43,1.15c-0.28,0.28-0.68,0.42-1.19,0.42c-0.52,0-0.92-0.14-1.21-0.41
				C257.96,100.6,257.82,100.21,257.82,99.71z"/>
			<path class="st30" d="M268.79,87.47h4.22c1.92,0,3.32,0.27,4.19,0.82c0.87,0.55,1.3,1.42,1.3,2.61c0,0.81-0.19,1.47-0.57,1.99
				c-0.38,0.52-0.89,0.83-1.52,0.94v0.09c0.86,0.19,1.48,0.55,1.86,1.08c0.38,0.53,0.57,1.22,0.57,2.1c0,1.24-0.45,2.2-1.34,2.89
				c-0.89,0.69-2.11,1.04-3.64,1.04h-5.07V87.47z M271.67,92.84h1.67c0.78,0,1.34-0.12,1.69-0.36c0.35-0.24,0.52-0.64,0.52-1.2
				c0-0.52-0.19-0.89-0.57-1.12c-0.38-0.23-0.98-0.34-1.8-0.34h-1.51V92.84z M271.67,95.13v3.54h1.87c0.79,0,1.38-0.15,1.75-0.46
				c0.38-0.3,0.57-0.77,0.57-1.39c0-1.13-0.8-1.69-2.41-1.69H271.67z"/>
			<path class="st30" d="M289.86,101.04l-0.98-3.23h-4.94l-0.98,3.23h-3.1l4.79-13.62h3.52l4.81,13.62H289.86z M288.19,95.39
				c-0.91-2.93-1.42-4.58-1.54-4.96c-0.11-0.38-0.2-0.69-0.25-0.91c-0.2,0.79-0.79,2.75-1.75,5.87H288.19z"/>
			<path class="st30" d="M297.55,95.83v5.21h-2.88V87.47h3.95c1.84,0,3.21,0.34,4.09,1.01c0.88,0.67,1.33,1.69,1.33,3.06
				c0,0.8-0.22,1.51-0.66,2.13c-0.44,0.62-1.06,1.11-1.86,1.46c2.04,3.05,3.37,5.02,3.99,5.91h-3.19l-3.24-5.21H297.55z
				 M297.55,93.49h0.93c0.91,0,1.58-0.15,2.01-0.45c0.43-0.3,0.65-0.78,0.65-1.43c0-0.64-0.22-1.1-0.66-1.37
				c-0.44-0.27-1.13-0.41-2.05-0.41h-0.87V93.49z"/>
			<path class="st30" d="M307.21,87.47h4.22c1.92,0,3.32,0.27,4.19,0.82c0.87,0.55,1.3,1.42,1.3,2.61c0,0.81-0.19,1.47-0.57,1.99
				c-0.38,0.52-0.89,0.83-1.52,0.94v0.09c0.86,0.19,1.48,0.55,1.86,1.08c0.38,0.53,0.57,1.22,0.57,2.1c0,1.24-0.45,2.2-1.34,2.89
				c-0.89,0.69-2.11,1.04-3.64,1.04h-5.07V87.47z M310.09,92.84h1.67c0.78,0,1.34-0.12,1.69-0.36c0.35-0.24,0.52-0.64,0.52-1.2
				c0-0.52-0.19-0.89-0.57-1.12c-0.38-0.23-0.98-0.34-1.8-0.34h-1.51V92.84z M310.09,95.13v3.54h1.87c0.79,0,1.38-0.15,1.75-0.46
				c0.38-0.3,0.57-0.77,0.57-1.39c0-1.13-0.8-1.69-2.41-1.69H310.09z"/>
			<path class="st30" d="M328.28,101.04l-0.98-3.23h-4.94l-0.98,3.23h-3.1l4.79-13.62h3.52l4.81,13.62H328.28z M326.61,95.39
				c-0.91-2.93-1.42-4.58-1.54-4.96c-0.11-0.38-0.2-0.69-0.25-0.91c-0.2,0.79-0.79,2.75-1.75,5.87H326.61z"/>
			<path class="st30" d="M335.96,95.83v5.21h-2.88V87.47h3.95c1.84,0,3.21,0.34,4.09,1.01c0.88,0.67,1.33,1.69,1.33,3.06
				c0,0.8-0.22,1.51-0.66,2.13c-0.44,0.62-1.06,1.11-1.86,1.46c2.04,3.05,3.37,5.02,3.99,5.91h-3.19l-3.24-5.21H335.96z
				 M335.96,93.49h0.93c0.91,0,1.58-0.15,2.01-0.45c0.43-0.3,0.65-0.78,0.65-1.43c0-0.64-0.22-1.1-0.66-1.37
				c-0.44-0.27-1.13-0.41-2.05-0.41h-0.87V93.49z"/>
			<path class="st30" d="M353.93,101.04l-0.98-3.23H348l-0.98,3.23h-3.1l4.79-13.62h3.52l4.81,13.62H353.93z M352.26,95.39
				c-0.91-2.93-1.42-4.58-1.54-4.96c-0.11-0.38-0.2-0.69-0.25-0.91c-0.2,0.79-0.79,2.75-1.75,5.87H352.26z"/>
			<path class="st30" d="M368.82,93.42h5.38v7.03c-0.87,0.28-1.69,0.48-2.46,0.6c-0.77,0.11-1.56,0.17-2.36,0.17
				c-2.05,0-3.61-0.6-4.69-1.8c-1.08-1.2-1.62-2.93-1.62-5.18c0-2.19,0.63-3.9,1.88-5.12c1.25-1.22,2.99-1.84,5.21-1.84
				c1.39,0,2.73,0.28,4.03,0.83l-0.96,2.3c-0.99-0.49-2.02-0.74-3.09-0.74c-1.24,0-2.24,0.42-2.99,1.25
				c-0.75,0.83-1.12,1.96-1.12,3.37c0,1.47,0.3,2.6,0.9,3.37c0.6,0.78,1.48,1.16,2.63,1.16c0.6,0,1.21-0.06,1.83-0.19v-2.83h-2.57
				V93.42z"/>
			<path class="st30" d="M377.43,101.04V87.47h2.88v13.56H377.43z"/>
			<path class="st30" d="M388.96,101.04h-2.88V89.87h-3.68v-2.39h10.24v2.39h-3.68V101.04z"/>
			<path class="st30" d="M402.54,101.04h-7.81V87.47h7.81v2.36h-4.94v2.98h4.59v2.36h-4.59v3.5h4.94V101.04z"/>
			<path class="st30" d="M417.4,101.04h-3.66l-5.9-10.26h-0.08c0.12,1.81,0.18,3.1,0.18,3.88v6.38h-2.57V87.47h3.63l5.89,10.16h0.06
				c-0.09-1.76-0.14-3.01-0.14-3.74v-6.42h2.59V101.04z"/>
			<path class="st30" d="M428.82,97.27c0,1.22-0.44,2.19-1.32,2.89c-0.88,0.71-2.11,1.06-3.68,1.06c-1.45,0-2.73-0.27-3.84-0.82
				v-2.67c0.92,0.41,1.69,0.7,2.32,0.86c0.63,0.17,1.21,0.25,1.74,0.25c0.63,0,1.11-0.12,1.45-0.36c0.34-0.24,0.51-0.6,0.51-1.08
				c0-0.27-0.07-0.5-0.22-0.71s-0.37-0.41-0.65-0.6c-0.29-0.19-0.87-0.5-1.76-0.92c-0.83-0.39-1.45-0.76-1.86-1.12
				c-0.41-0.36-0.75-0.78-0.99-1.25c-0.25-0.48-0.37-1.03-0.37-1.67c0-1.2,0.41-2.14,1.22-2.83c0.81-0.69,1.94-1.03,3.37-1.03
				c0.71,0,1.38,0.08,2.02,0.25c0.64,0.17,1.31,0.4,2.01,0.71l-0.93,2.24c-0.72-0.3-1.32-0.5-1.79-0.62
				c-0.47-0.12-0.94-0.18-1.4-0.18c-0.54,0-0.96,0.13-1.25,0.38c-0.29,0.25-0.44,0.58-0.44,0.99c0,0.25,0.06,0.48,0.18,0.66
				c0.12,0.19,0.3,0.37,0.56,0.55c0.26,0.18,0.86,0.49,1.82,0.95c1.27,0.61,2.14,1.21,2.61,1.82
				C428.58,95.64,428.82,96.38,428.82,97.27z"/>
			<path class="st30" d="M436.51,101.04h-2.88V89.87h-3.68v-2.39h10.24v2.39h-3.68V101.04z"/>
			<path class="st30" d="M450.09,101.04h-7.81V87.47h7.81v2.36h-4.94v2.98h4.59v2.36h-4.59v3.5h4.94V101.04z"/>
			<path class="st30" d="M452.92,101.04V87.47h2.88v13.56H452.92z"/>
			<path class="st30" d="M471.25,101.04h-3.66l-5.9-10.26h-0.08c0.12,1.81,0.18,3.1,0.18,3.88v6.38h-2.57V87.47h3.63l5.89,10.16
				h0.06c-0.09-1.76-0.14-3.01-0.14-3.74v-6.42h2.59V101.04z"/>
			<path class="st30" d="M479.59,101.04V87.47h2.88v11.19h5.5v2.38H479.59z"/>
			<path class="st30" d="M490.33,101.04V87.47h2.88v13.56H490.33z"/>
			<path class="st30" d="M496.62,87.47h4.22c1.92,0,3.32,0.27,4.19,0.82c0.87,0.55,1.3,1.42,1.3,2.61c0,0.81-0.19,1.47-0.57,1.99
				c-0.38,0.52-0.89,0.83-1.52,0.94v0.09c0.86,0.19,1.48,0.55,1.86,1.08c0.38,0.53,0.57,1.22,0.57,2.1c0,1.24-0.45,2.2-1.34,2.89
				c-0.89,0.69-2.11,1.04-3.64,1.04h-5.07V87.47z M499.49,92.84h1.67c0.78,0,1.34-0.12,1.69-0.36c0.35-0.24,0.52-0.64,0.52-1.2
				c0-0.52-0.19-0.89-0.57-1.12c-0.38-0.23-0.98-0.34-1.8-0.34h-1.51V92.84z M499.49,95.13v3.54h1.87c0.79,0,1.38-0.15,1.75-0.46
				c0.38-0.3,0.57-0.77,0.57-1.39c0-1.13-0.8-1.69-2.41-1.69H499.49z"/>
			<path class="st30" d="M512.26,95.83v5.21h-2.88V87.47h3.95c1.84,0,3.21,0.34,4.09,1.01c0.88,0.67,1.33,1.69,1.33,3.06
				c0,0.8-0.22,1.51-0.66,2.13c-0.44,0.62-1.06,1.11-1.86,1.46c2.04,3.05,3.37,5.02,3.99,5.91h-3.19l-3.24-5.21H512.26z
				 M512.26,93.49h0.93c0.91,0,1.58-0.15,2.01-0.45c0.43-0.3,0.65-0.78,0.65-1.43c0-0.64-0.22-1.1-0.66-1.37
				c-0.44-0.27-1.13-0.41-2.05-0.41h-0.87V93.49z"/>
			<path class="st30" d="M530.23,101.04l-0.98-3.23h-4.94l-0.98,3.23h-3.1l4.79-13.62h3.52l4.81,13.62H530.23z M528.56,95.39
				c-0.91-2.93-1.42-4.58-1.54-4.96c-0.11-0.38-0.2-0.69-0.25-0.91c-0.2,0.79-0.79,2.75-1.75,5.87H528.56z"/>
			<path class="st30" d="M537.91,95.83v5.21h-2.88V87.47h3.95c1.84,0,3.21,0.34,4.09,1.01c0.88,0.67,1.33,1.69,1.33,3.06
				c0,0.8-0.22,1.51-0.66,2.13c-0.44,0.62-1.06,1.11-1.86,1.46c2.04,3.05,3.37,5.02,3.99,5.91h-3.19l-3.24-5.21H537.91z
				 M537.91,93.49h0.93c0.91,0,1.58-0.15,2.01-0.45c0.43-0.3,0.65-0.78,0.65-1.43c0-0.64-0.22-1.1-0.66-1.37
				c-0.44-0.27-1.13-0.41-2.05-0.41h-0.87V93.49z"/>
			<path class="st30" d="M551.8,93.06l2.83-5.58h3.1l-4.5,8.28v5.28h-2.86v-5.19l-4.5-8.38h3.12L551.8,93.06z"/>
		</g>
		<path class="st30" d="M405.77,59.93l-5.83-5.83c-0.01-0.01-0.02-0.01-0.03-0.02c-0.09-0.08-0.18-0.15-0.29-0.2c0,0,0,0,0,0
			c-0.01,0-0.02,0-0.03-0.01c-0.1-0.04-0.21-0.06-0.31-0.06c-0.03,0-0.07,0-0.1,0.01c-0.09,0.01-0.17,0.02-0.25,0.05
			c-0.03,0.01-0.07,0.02-0.1,0.03c-0.11,0.05-0.21,0.11-0.3,0.2l-6.05,6.05c-0.39,0.39-0.39,1.02,0,1.41c0.39,0.39,1.02,0.39,1.41,0
			l4.35-4.35v17.16c0,0.55,0.45,1,1,1s1-0.45,1-1V57.22l4.12,4.12c0.2,0.2,0.45,0.29,0.71,0.29s0.51-0.1,0.71-0.29
			C406.16,60.95,406.16,60.32,405.77,59.93z"/>
	</g>
</g>
</svg>
