<?xml version="1.0" encoding="utf-8"?>
<!-- Generator: Adobe Illustrator 23.0.1, SVG Export Plug-In . SVG Version: 6.00 Build 0)  -->
<svg version="1.1" id="Layer_1" xmlns="http://www.w3.org/2000/svg" xmlns:xlink="http://www.w3.org/1999/xlink" x="0px" y="0px"
	 viewBox="0 0 658.7 498.5" style="enable-background:new 0 0 658.7 498.5;" xml:space="preserve">
<style type="text/css">
	.st0{fill:#E6E7E8;}
	.st1{opacity:0.9;fill:#FFFFFF;enable-background:new    ;}
	.st2{fill:#939598;}
	.st3{fill:#B5B5B6;}
	.st4{opacity:0.75;fill:#FFFFFF;enable-background:new    ;}
	.st5{fill:#CE6759;}
	.st6{fill:#414042;}
	.st7{fill:#FFFFFF;}
</style>
<g id="Layer_3">
</g>
<g>
	<g>
		<path class="st0" d="M2.2,330l165.3,165.3l320.6,1.1L655,329.5L328.7,1.7C328.7,1.7,3,330,2.2,330z"/>
		<path class="st1" d="M526.6,329.1l-1.4-1.4l-65.6,65.6l-63.8-63.8l67.1-67.1l-1.4-1.4l-67.1,67.1l-63.7-63.7l64.8-64.8l-1.4-1.4
			L329.3,263L265,198.7l-1.4,1.4l64.3,64.3L263.2,329l-65-65l-1.4,1.4l65,65l-62.7,62.7L133,327l-1.4,1.4l66.1,66.1l-65,65l1.4,1.4
			l65-65l63.7,63.7l-34.3,34.3l1.4,1.4l34.3-34.3l35.7,35.7l1.4-1.4l-35.7-35.7l62.7-62.7l63.8,63.8l-34.4,34.4l1.4,1.4l34.4-34.4
			l34.4,34.4l1.4-1.4L395,460.7l64.6-64.6l64.2,64.2l1.4-1.4L461,394.7L526.6,329.1z M329.3,265.8l63.7,63.7l-64.6,64.6l-63.7-63.7
			L329.3,265.8z M264.3,458.2l-63.7-63.7l62.7-62.7l63.7,63.7L264.3,458.2z M393.6,459.3l-63.8-63.8l64.6-64.6l63.8,63.8
			L393.6,459.3z"/>
		<path class="st2" d="M488.1,498.5C488.1,498.5,488.1,498.5,488.1,498.5l-320.3-1.1c-0.5,0-1-0.2-1.4-0.6L1.2,331.2
			c-0.6-0.6-0.7-1.4-0.4-2.2c0.1-0.3,0.4-0.6,0.7-0.8C8,322.3,324.6,4.7,327.9,1.5c0.8-0.8,2.1-0.8,2.8,0l325.8,326.6
			c0.8,0.8,0.8,2,0,2.8L489.5,497.9C489.1,498.3,488.6,498.5,488.1,498.5z M168.6,493.4l318.7,1.1l164.9-164.9L329.3,5.7
			C318.1,17,242.4,92.8,167.6,167.8C120.3,215.2,82.5,253,55.4,280.2c-15.3,15.3-28.1,28.1-37.1,37c-4.5,4.5-8,8-10.5,10.4
			c-1,1-1.7,1.7-2.3,2.3L168.6,493.4z"/>
		<polygon class="st3" points="329.5,132.4 590.8,393.7 655.7,328.8 459.3,132.4 459.5,132.3 329.7,2.5 329.6,2.6 329.4,2.4 
			199.8,132.4 2.4,329.8 67.3,394.7 		"/>
		<path class="st4" d="M616.3,325.2l17.5-17.5l-0.4-0.4L616,324.9l-21-21l17.6-17.6l-0.4-0.4l-17.6,17.6l-21-21l17.2-17.2l-0.4-0.4
			l-17.2,17.2l-21-21l17.4-17.4l-0.4-0.4l-17.4,17.4l-21-21l17.4-17.4l-0.4-0.4l-17.4,17.4L509.1,218l17-17.1l-0.4-0.4l-17,17.1
			l-21-21l17.1-17.1l-0.4-0.4l-17.1,17.1l-21-21l16.9-16.9l-0.4-0.4L466,174.9l-21-21l17.2-17.2l-0.4-0.4l-17.2,17.2l-21.2-21.2
			l16.9-16.9l-0.4-0.4L423.1,132l-21-21l17.5-17.5l-0.4-0.4l-17.5,17.5l-21-21l16.7-16.7l-0.4-0.4l-16.7,16.7l-21-21l16.9-16.9
			l-0.4-0.4l-16.9,16.9l-21-21l17-17l-0.4-0.4l-17,17l-8.2-8.2l0,0L312,20.8l-0.4,0.4l17.2,17.2l-20.9,20.9l-17.4-17.4l-0.4,0.4
			l17.4,17.4l-21,21l-17.6-17.6l-0.4,0.4l17.6,17.6l-21,21l-17.2-17.2l-0.4,0.4l17.2,17.2l-21,21l-17.4-17.4l-0.4,0.4l17.4,17.4
			l-21,21L205,127.4l-0.4,0.4l17.4,17.4l-21.4,21.4l-17-17l-0.4,0.4l17,17l-21,21l-17.1-17.1l-0.4,0.4l17.1,17.1l-21,21L141,192.5
			l-0.4,0.4l16.9,16.9l-21,21l-17.1-17.1l-0.4,0.4l17.1,17.1l-21.2,21.2l-16.9-16.9l-0.4,0.4l16.9,16.9l-21,21l-17.4-17.5l-0.4,0.4
			L93.2,274l-21,21l-16.7-16.7l-0.4,0.4l16.7,16.7l-21,21l-16.9-16.9l-0.4,0.4l16.8,16.9l-21,21l-16.9-16.9l-0.4,0.4l16.9,16.9
			l-9.2,9.2l0.3,0.3L40,327.9l15.6,15.6l-19.5,19.5l0.3,0.3l8.2-8.2l15.6,15.6l-8.5,8.5l0.3,0.3l20.3-20.3l15.9,15.9l0.4-0.4
			l-15.9-15.9l21-21l15.9,15.9l0.4-0.4l-15.9-16l21-21l15.9,15.9l0.4-0.4L115.5,316l21-21l15.9,15.9l0.4-0.4l-15.9-15.9l21-21
			l15.9,15.9l0.4-0.4l-15.9-15.9l42.6-42.6l15.9,15.9l0.4-0.4l-15.9-15.9l21-21l15.9,15.9l0.4-0.4l-15.9-15.9l21-21l15.9,15.9
			l0.4-0.4l-15.9-15.9l21.4-21.4l15.9,15.9l0.4-0.4l-15.9-15.9l21-21l15.9,15.9l0.4-0.4L287,144.5l21-21l15.9,15.9l0.4-0.4
			l-15.9-15.9l20.7-20.7l30.1,30.1l-15.9,15.9l0.4,0.4l15.9-15.9l21,21l-15.9,15.9l0.4,0.4l15.9-15.9l21,21l-15.9,15.9l0.4,0.4
			l15.9-15.9l21.2,21.2l-15.9,15.9l0.4,0.4l15.9-15.9l21,21l-15.9,15.9l0.4,0.4l15.9-15.9l21,21l-15.9,15.9l0.4,0.4l15.9-15.9l21,21
			l-15.9,15.9l0.4,0.4l15.9-15.9l21.4,21.4l-15.9,15.9l0.4,0.4l15.9-15.9l21,21L514.9,320l0.4,0.4l15.9-15.9l21,21l-15.9,15.9
			l0.4,0.4l15.9-15.9l19.3,19.4l-16.1,16.1l0.4,0.4l16.1-16.1l22.6,22.6l-16.1,16.1l0.4,0.4l16.1-16.1l10.4,10.4l0.3-0.3l-22.1-22.1
			l15.6-15.6l22.1,22.1l0.3-0.3L611,351.7l15.6-15.6l10.9,10.9l0.3-0.3L616.3,325.2z M604.9,314.4L589.3,330l-21-21l15.6-15.6
			L604.9,314.4z M583.5,293l-15.6,15.6l-21-21l15.6-15.6L583.5,293z M562.1,271.7l-15.6,15.6l-21-21l15.5-15.5l-0.4-0.4l-15.5,15.5
			l-21.4-21.4l15.6-15.6L562.1,271.7z M519,228.6l-15.6,15.6l-21-21l15.6-15.6L519,228.6z M497.6,207.2L482,222.7l-21-21l15.6-15.6
			L497.6,207.2z M476.2,185.8l-15.6,15.6l-21-21l15.6-15.6L476.2,185.8z M454.9,164.4L439.3,180l-21.2-21.2l15.6-15.6L454.9,164.4z
			 M433.3,142.9l-15.6,15.6l-21-21l15.6-15.6L433.3,142.9z M411.9,121.5l-15.6,15.6l-21-21l15.6-15.6L411.9,121.5z M390.5,100.1
			L375,115.7l-21-21l15.6-15.6L390.5,100.1z M369.2,78.7l-15.6,15.6l-24.1-24.1l15.6-15.6L369.2,78.7z M329.1,38.7l15.6,15.6L329,70
			l-14.6,14.6L298.8,69L329.1,38.7z M298.5,69.4l15.6,15.6l-22.5,22.4L276,91.8L298.5,69.4z M275.7,92.2l15.6,15.6l-21,21
			l-15.6-15.6L275.7,92.2z M254.3,113.6l15.6,15.6l-21,21l-15.5-15.5l-0.4,0.4l15.5,15.5l-21.4,21.4l-15.6-15.6L254.3,113.6z
			 M211.2,156.7l15.6,15.6l-21,21l-15.6-15.6L211.2,156.7z M189.8,178.1l15.6,15.6l-21,21l-15.6-15.6L189.8,178.1z M168.4,199.4
			L184,215l-42.6,42.6L125.9,242L168.4,199.4z M125.5,242.4l15.6,15.6l-21,21l-15.6-15.6L125.5,242.4z M104.1,263.7l15.6,15.6
			l-21,21l-15.6-15.6L104.1,263.7z M82.8,285.1l15.6,15.6l-21,21l-15.6-15.6L82.8,285.1z M40.3,327.5l21-21l15.6,15.6l-21,21
			L40.3,327.5z M60.6,370.2L45,354.6l21-21l15.6,15.6L60.6,370.2z M82,348.8l-15.6-15.6l21-21l15.6,15.6L82,348.8z M103.4,327.5
			l-15.6-15.6l21-21l15.6,15.6L103.4,327.5z M124.7,306.1l-15.6-15.6l21-21l15.6,15.6L124.7,306.1z M146.1,284.7l-15.6-15.6
			l21.2-21.2l15.6,15.6L146.1,284.7z M167.7,263.1l-15.6-15.6l21-21l15.6,15.6L167.7,263.1z M189.1,241.8l-15.6-15.6l21-21
			l15.6,15.6L189.1,241.8z M210.4,220.4l-15.6-15.6l21-21l15.6,15.6L210.4,220.4z M231.8,199l-15.6-15.6l21.4-21.4l15.6,15.6
			L231.8,199z M253.5,177.3L238,161.7l21-21l15.6,15.6L253.5,177.3z M274.9,155.9l-15.6-15.6l21-21l15.6,15.6L274.9,155.9z
			 M296.3,134.5L280.7,119l21-21l15.6,15.6L296.3,134.5z M328.4,102.4l-10.8,10.8l-15.6-15.6l27-27.1l15.5,15.5L328.4,102.4
			L328.4,102.4z M329.5,102l15.6-15.6l21.5,21.5L351,123.5L329.5,102z M360,132.5L360,132.5l-0.4-0.4l0,0l-8.3-8.3l15.6-15.6
			l17.9,17.9l-15.6,15.6L360,132.5z M381.4,153.9L381.4,153.9l-0.4-0.4l0,0l-11.4-11.4l15.6-15.6l21,21l-15.6,15.6L381.4,153.9z
			 M424.3,196.8L424.3,196.8l-0.4-0.4l0,0l-21.2-21.2l0,0l-0.4-0.4l0,0L391,163.5l15.6-15.6l42.6,42.6l-15.6,15.6L424.3,196.8z
			 M445.7,218.2L445.7,218.2l-0.4-0.4l0,0l-11.4-11.4l15.6-15.6l21,21l-15.6,15.6L445.7,218.2z M467.1,239.6L467.1,239.6l-0.4-0.4
			l0,0l-11.4-11.4l15.6-15.6l21,21l-15.6,15.6L467.1,239.6z M488.4,261L488.4,261l-0.4-0.4l0,0l-11.4-11.4l15.6-15.6l21.4,21.4
			L498,270.5L488.4,261z M510.2,282.7L510.2,282.7l-0.4-0.4l0,0l-11.4-11.4l15.6-15.6l21,21l-15.6,15.6L510.2,282.7z M531.5,304.1
			L531.5,304.1l-0.4-0.4l0,0l-11.4-11.4l15.6-15.6l21,21l-15.6,15.6L531.5,304.1z M552.9,325.4L552.9,325.4l-0.4-0.4l0,0l-11.4-11.4
			l15.6-15.6l21,21l-15.6,15.6L552.9,325.4z M583.5,356l-21-21l15.6-15.6l21,21L583.5,356z M610.7,351.4l-21-21l15.6-15.6l21,21
			L610.7,351.4z"/>
		
			<rect x="152.3" y="154.1" transform="matrix(0.7071 -0.7071 0.7071 0.7071 -82.4261 198.1595)" class="st5" width="91.4" height="88.9"/>
		<path class="st6" d="M657.1,327.5L331.1,1.1c-0.4-0.4-0.8-0.5-1.3-0.6c-0.6-0.1-1.3,0-1.8,0.5L1.1,328.5c-0.4,0.4-0.6,0.8-0.6,1.4
			s0.2,1,0.6,1.4L65.9,396c0.4,0.4,0.9,0.6,1.3,0.6s1-0.2,1.3-0.6l129.7-129.7c0.2-0.1,0.3-0.2,0.5-0.3c0.1-0.1,0.3-0.3,0.3-0.5
			l130.4-130.4l259.9,259.9c0.7,0.7,2,0.7,2.7,0l64.9-64.9C657.8,329.4,657.8,328.2,657.1,327.5z M463.3,263.5l62.2-62.2l62.3,62.4
			l-62.2,62.2L463.3,263.5z M398.1,198.3l62.2-62.2l62.3,62.3l-62.2,62.2L398.1,198.3z M457.6,133.2l-62.3,62.3L332.8,133l62.3-62.3
			c0,0,0,0,0-0.1l62.4,62.4C457.5,133.1,457.6,133.1,457.6,133.2z M263.5,195.8l-62.3-62.3l62.8-62.9c0,0,0.1,0.1,0.1,0.1l62.1,62.1
			c0,0,0.1,0.1,0.1,0.1L263.5,195.8z M197.5,261.8l-62.3-62.3l63.2-63.2l62.3,62.3L197.5,261.8z M133.4,325.9l-62.2-62.2l61.2-61.3
			l62.3,62.3L133.4,325.9z M329.5,5l62.8,62.8c0,0,0,0-0.1,0.1L330,130.2c-0.1,0.1-0.2,0.3-0.3,0.4c-0.1,0-0.1,0-0.2,0
			c-0.1-0.2-0.2-0.4-0.4-0.6L267,67.9c0,0-0.1-0.1-0.1-0.1L329.5,5z M67.3,392L5.1,329.8l63.2-63.3l62.2,62.2L67.3,392z M590.8,391
			l-62.4-62.4l62.2-62.2l62.4,62.4L590.8,391z"/>
		<g>
			<path class="st7" d="M203.7,184.7c-3.5,0-6.3,1.3-8.2,4c-1.9,2.6-2.9,6.3-2.9,11.1c0,9.9,3.7,14.8,11.1,14.8
				c3.1,0,6.9-0.8,11.3-2.3v7.9c-3.6,1.5-7.7,2.3-12.1,2.3c-6.4,0-11.3-1.9-14.8-5.9s-5.1-9.5-5.1-16.8c0-4.6,0.8-8.6,2.5-12.1
				c1.7-3.4,4.1-6.1,7.2-7.9c3.1-1.8,6.8-2.8,11-2.8c4.3,0,8.6,1,12.9,3.1l-3,7.6c-1.6-0.8-3.3-1.5-5-2.1
				C206.9,185,205.3,184.7,203.7,184.7z"/>
		</g>
	</g>
</g>
</svg>
